# Blender v2.68 (sub 0) OBJ File: 'Item_Laser.blend'
# www.blender.org
o Cylinder
v -0.494203 0.356653 -0.109628
v -0.100589 0.356653 -0.109628
v -0.494203 0.279134 -0.077519
v -0.100589 0.279134 -0.077519
v -0.494203 0.247025 0.000000
v -0.100589 0.247025 0.000000
v -0.494203 0.279134 0.077519
v -0.080524 0.487903 -0.000000
v -0.494203 0.356653 0.109628
v -0.080524 0.449461 0.092808
v -0.494203 0.434172 0.077519
v -0.100589 0.434172 0.077519
v -0.494203 0.466281 -0.000000
v -0.100589 0.466281 -0.000000
v -0.494203 0.434172 -0.077519
v -0.100589 0.434172 -0.077519
v -0.080524 0.225403 0.000000
v -0.100589 0.279134 0.077519
v -0.100589 0.356653 0.109628
v -0.080524 0.263845 -0.092808
v -0.080524 0.356653 -0.131250
v -0.080524 0.449461 -0.092808
v -0.080524 0.263845 0.092808
v -0.080524 0.356653 0.131250
v -0.064175 0.487903 -0.000000
v -0.064175 0.225403 0.000000
v -0.064175 0.263845 -0.092808
v -0.064175 0.356653 -0.131250
v -0.064175 0.449461 -0.092808
v -0.064175 0.263845 0.092808
v -0.064175 0.356653 0.131250
v -0.064175 0.449461 0.092808
v -0.061728 0.263845 -0.092808
v -0.061728 0.449461 -0.092808
v -0.061728 0.263845 0.092808
v -0.061728 0.356653 0.131250
v -0.061728 0.487903 -0.000000
v -0.061728 0.449461 0.092808
v -0.061728 0.225403 0.000000
v -0.061728 0.356653 -0.131250
v -0.046339 0.455534 -0.000000
v -0.046339 0.426573 0.069920
v -0.046339 0.257771 0.000000
v -0.046339 0.286733 -0.069920
v -0.046339 0.356653 -0.098882
v -0.046339 0.426573 -0.069920
v -0.046339 0.286733 0.069920
v -0.046339 0.356653 0.098882
v -0.046339 0.389845 -0.000000
v -0.046339 0.380124 0.023471
v -0.046339 0.323460 0.000000
v -0.046339 0.333182 -0.023471
v -0.046339 0.356653 -0.033193
v -0.046339 0.380124 -0.023471
v -0.046339 0.333182 0.023471
v -0.046339 0.356653 0.033193
v 0.490992 0.389846 -0.000000
v 0.490992 0.380124 0.023471
v 0.490992 0.323460 0.000000
v 0.490992 0.333182 -0.023471
v 0.490992 0.356653 -0.033193
v 0.490992 0.380124 -0.023471
v 0.490992 0.333182 0.023471
v 0.490992 0.356653 0.033193
vt 0.425743 0.650480
vt 0.424796 0.341918
vt 0.543824 0.650117
vt 0.542877 0.341556
vt 0.627320 0.649861
vt 0.369412 0.229691
vt 0.452909 0.313187
vt 0.341300 0.241335
vt 0.654487 0.229691
vt 0.654487 0.111609
vt 0.682600 0.241335
vt 0.452909 0.028112
vt 0.369412 0.111609
vt 0.441264 0.000000
vt 0.256857 0.341556
vt 0.257804 0.650117
vt 0.138776 0.341918
vt 0.341300 0.099964
vt 0.342246 0.650736
vt 0.341300 0.342174
vt 0.139722 0.650480
vt 0.055280 0.342174
vt 0.627320 0.542878
vt 0.627320 0.424796
vt 0.710817 0.341300
vt 0.570991 0.028112
vt 0.682600 0.099964
vt 0.570991 0.313187
vt 0.582635 0.341300
vt 0.441264 0.341300
vt 0.054539 0.441264
vt 0.054973 0.582634
vt 0.041723 0.441303
vt 0.683546 0.341300
vt 0.682600 0.032738
vt 0.767042 0.341044
vt 0.766096 0.032482
vt 0.885124 0.340681
vt 0.340353 0.341300
vt 0.341300 0.649861
vt 0.582635 0.000000
vt 0.030516 0.341300
vt 0.030949 0.482670
vt 0.017700 0.341339
vt 0.014734 0.341300
vt 0.015041 0.441264
vt 0.001919 0.341339
vt 0.054233 0.341300
vt 0.041417 0.341339
vt 0.031256 0.582634
vt 0.018134 0.482709
vt 0.055280 0.682598
vt 0.042157 0.582673
vt 0.015781 0.341345
vt 0.223903 0.042085
vt 0.299215 0.117397
vt 0.188526 0.127493
vt 0.241335 0.341300
vt 0.099964 0.341300
vt 0.223903 0.299215
vt 0.974720 0.341487
vt 1.000000 0.341565
vt 0.973427 0.762712
vt 0.042085 0.223903
vt 0.042085 0.117397
vt 0.127493 0.188526
vt 0.299215 0.223903
vt 0.213806 0.188526
vt 0.117397 0.042085
vt 0.152774 0.127493
vt 0.127493 0.152774
vt 0.213806 0.152774
vt 0.117397 0.299215
vt 0.188526 0.213806
vt 0.152774 0.213806
vt 0.402332 0.650736
vt 0.427613 0.676016
vt 0.366580 0.650736
vt 0.875351 0.626485
vt 0.911103 0.626375
vt 0.876643 1.047710
vt 0.714925 1.047600
vt 0.689645 1.047677
vt 0.713633 0.626375
vt 0.938968 0.341377
vt 0.937676 0.762602
vt 0.653893 1.047787
vt 0.688352 0.626452
vt 0.850071 0.626562
vt 0.851363 1.047787
vt 0.913687 0.341300
vt 0.912395 0.762525
vt 0.628612 1.047865
vt 0.652600 0.626562
vt 0.002225 0.441303
vt 0.000000 0.341345
vt 0.015475 0.582634
vt 0.015781 0.682598
vt 0.002659 0.582673
vt 0.000307 0.441309
vt 0.000740 0.582679
vt 0.039498 0.341345
vt 0.018440 0.582673
vt 0.016215 0.482715
vt 0.042464 0.682637
vt 0.040239 0.582679
vt 0.002966 0.682637
vt 0.001047 0.682643
vt 0.039805 0.441309
vt 0.099964 0.000000
vt 0.241335 0.000000
vt 0.000000 0.099964
vt 0.000000 0.241335
vt 0.626373 0.341300
vt 0.056226 0.650736
vt 0.710817 0.626375
vt 0.828899 0.626375
vt 0.912395 0.542878
vt 0.912395 0.424796
vt 0.828898 0.341300
vt 0.884177 0.032120
vt 0.998708 0.762790
vt 0.427613 0.711769
vt 0.402332 0.737049
vt 0.341300 0.711769
vt 0.341300 0.676016
vt 0.366580 0.737049
vt 0.912395 1.047600
vt 0.627320 0.626640
vt 0.016522 0.582679
vt 0.040545 0.682643
vn 0.000000 -0.382683 -0.923880
vn 0.000000 -0.923880 -0.382683
vn -0.705519 0.654745 -0.271204
vn -0.705519 -0.271204 0.654745
vn -0.705520 -0.271204 -0.654745
vn -0.000000 0.923880 0.382683
vn -0.705519 0.271204 -0.654745
vn -0.000000 0.382683 -0.923880
vn -0.000000 0.923880 -0.382683
vn -1.000000 0.000000 0.000000
vn -0.705519 -0.654745 0.271204
vn -0.705519 0.271204 0.654745
vn -0.705519 0.654745 0.271204
vn 0.000000 -0.382683 -0.923879
vn 0.000000 -0.923880 0.382683
vn 0.000000 -0.382683 0.923880
vn -0.000000 0.382684 0.923879
vn -0.705520 -0.654745 -0.271204
vn 0.000001 -0.923880 -0.382684
vn 0.000000 -0.923879 0.382684
vn 0.000000 0.382684 -0.923880
vn 1.000000 0.000000 -0.000000
vn 0.889176 0.422736 0.175103
vn -0.000000 0.923879 0.382684
vn -0.000000 0.382683 0.923880
vn 0.000000 -0.382684 -0.923879
vn 0.000000 -0.382684 0.923879
vn -0.000000 0.923879 -0.382684
vn 0.000000 -0.923879 -0.382684
vn 0.000000 0.382684 0.923880
vn -0.000002 0.923880 0.382683
vn 0.000000 -0.382684 -0.923880
vn 0.889175 -0.422736 -0.175103
vn 0.889175 -0.422736 0.175103
vn 0.889175 0.175103 -0.422736
vn 0.889175 0.175103 0.422736
vn 0.889175 -0.175103 -0.422736
vn 0.889175 -0.175103 0.422736
vn 0.889175 0.422736 -0.175103
vn -0.705519 -0.271204 -0.654745
vn -0.705520 -0.654745 0.271204
vn -0.705519 -0.654745 -0.271204
vn -0.000002 0.923880 -0.382683
vn 0.000001 -0.923880 0.382683
vn 0.889175 0.422736 0.175103
vn -0.000000 0.382684 -0.923879
vn 0.889176 0.422736 -0.175103
s off
f 1/1/1 2/2/1 3/3/1
f 3/3/2 4/4/2 5/5/2
f 16/6/3 14/7/3 22/8/3
f 19/9/4 18/10/4 24/11/4
f 4/12/5 2/13/5 20/14/5
f 11/15/6 12/16/6 13/17/6
f 2/13/7 16/6/7 21/18/7
f 15/19/8 16/20/8 1/1/8
f 13/17/9 14/21/9 15/22/9
f 1/23/10 3/24/10 5/25/10
f 18/10/11 6/26/11 23/27/11
f 12/28/12 19/9/12 10/29/12
f 14/7/13 12/28/13 8/30/13
f 20/31/14 21/32/14 27/33/14
f 5/34/15 6/35/15 7/36/15
f 7/36/16 18/37/16 9/38/16
f 9/39/17 19/40/17 11/15/17
f 6/26/18 4/12/18 17/41/18
f 24/42/16 23/43/16 31/44/16
f 22/45/9 8/46/9 29/47/9
f 17/48/19 20/31/19 26/49/19
f 23/43/20 17/50/20 30/51/20
f 21/32/21 22/52/21 28/53/21
f 31/44/16 30/51/16 36/54/16
f 44/55/22 45/56/22 52/57/22
f 37/58/23 38/59/23 41/60/23
f 53/61/8 54/62/8 61/63/8
f 48/64/22 47/65/22 56/66/22
f 46/67/22 41/60/22 54/68/22
f 43/69/22 44/55/22 51/70/22
f 47/65/22 43/69/22 55/71/22
f 45/56/22 46/67/22 53/72/22
f 41/60/22 42/73/22 49/74/22
f 42/73/22 48/64/22 50/75/22
f 60/76/22 61/77/22 59/78/22
f 49/79/24 50/80/24 57/81/24
f 50/82/25 56/83/25 58/84/25
f 52/85/26 53/61/26 60/86/26
f 56/83/27 55/87/27 64/88/27
f 54/89/28 49/79/28 62/90/28
f 51/91/29 52/85/29 59/92/29
f 55/87/20 51/93/20 63/94/20
f 29/47/9 25/95/9 34/96/9
f 10/97/30 24/98/30 32/99/30
f 8/46/31 10/97/31 25/95/31
f 37/100/6 32/99/6 38/101/6
f 26/49/2 27/33/2 39/102/2
f 30/51/15 26/103/15 35/104/15
f 28/53/8 29/105/8 40/106/8
f 25/95/6 32/99/6 37/100/6
f 32/99/17 31/107/17 36/108/17
f 27/33/32 28/53/32 33/109/32
f 39/110/33 33/111/33 43/69/33
f 32/99/17 36/108/17 38/101/17
f 35/112/34 39/110/34 47/65/34
f 40/18/35 34/8/35 45/56/35
f 38/59/36 36/113/36 42/73/36
f 33/111/37 40/18/37 44/55/37
f 36/113/38 35/112/38 48/64/38
f 34/8/39 37/58/39 46/67/39
f 2/2/1 4/4/1 3/3/1
f 4/4/2 6/114/2 5/5/2
f 14/7/3 8/30/3 22/8/3
f 18/10/4 23/27/4 24/11/4
f 2/13/40 21/18/40 20/14/40
f 12/16/6 14/21/6 13/17/6
f 16/6/7 22/8/7 21/18/7
f 16/20/21 2/2/21 1/1/21
f 14/21/9 16/115/9 15/22/9
f 15/116/10 1/23/10 5/25/10
f 13/117/10 15/116/10 5/25/10
f 11/118/10 13/117/10 5/25/10
f 9/119/10 11/118/10 7/120/10
f 11/118/10 5/25/10 7/120/10
f 6/26/41 17/41/41 23/27/41
f 19/9/12 24/11/12 10/29/12
f 12/28/13 10/29/13 8/30/13
f 21/32/32 28/53/32 27/33/32
f 6/35/15 18/37/15 7/36/15
f 18/37/16 19/121/16 9/38/16
f 19/40/17 12/16/17 11/15/17
f 4/12/42 20/14/42 17/41/42
f 23/43/16 30/51/16 31/44/16
f 8/46/43 25/95/43 29/47/43
f 20/31/2 27/33/2 26/49/2
f 17/50/44 26/103/44 30/51/44
f 22/52/21 29/105/21 28/53/21
f 30/51/16 35/104/16 36/54/16
f 45/56/22 53/72/22 52/57/22
f 38/59/45 42/73/45 41/60/45
f 54/62/46 62/122/46 61/63/46
f 47/65/22 55/71/22 56/66/22
f 41/60/22 49/74/22 54/68/22
f 44/55/22 52/57/22 51/70/22
f 43/69/22 51/70/22 55/71/22
f 46/67/22 54/68/22 53/72/22
f 42/73/22 50/75/22 49/74/22
f 48/64/22 56/66/22 50/75/22
f 61/77/22 62/123/22 59/78/22
f 62/123/22 57/124/22 59/78/22
f 59/78/22 64/125/22 63/126/22
f 57/124/22 58/127/22 59/78/22
f 58/127/22 64/125/22 59/78/22
f 50/80/24 58/128/24 57/81/24
f 56/83/17 64/88/17 58/84/17
f 53/61/1 61/63/1 60/86/1
f 55/87/16 63/94/16 64/88/16
f 49/79/28 57/81/28 62/90/28
f 52/85/2 60/86/2 59/92/2
f 51/93/15 59/129/15 63/94/15
f 25/95/9 37/100/9 34/96/9
f 24/98/30 31/107/30 32/99/30
f 10/97/6 32/99/6 25/95/6
f 27/33/2 33/109/2 39/102/2
f 26/103/15 39/130/15 35/104/15
f 29/105/8 34/131/8 40/106/8
f 28/53/32 40/106/32 33/109/32
f 33/111/33 44/55/33 43/69/33
f 39/110/34 43/69/34 47/65/34
f 34/8/35 46/67/35 45/56/35
f 36/113/36 48/64/36 42/73/36
f 40/18/37 45/56/37 44/55/37
f 35/112/38 47/65/38 48/64/38
f 37/58/47 41/60/47 46/67/47
