# Blender v2.68 (sub 0) OBJ File: 'More_Speed.blend'
# www.blender.org
o Cube.002_Mesh
v 0.219959 0.052426 0.419954
v 0.219959 -0.052426 0.419953
v 0.000000 -0.052426 0.201167
v 0.000000 0.052426 0.201167
v -0.219959 -0.052426 0.419953
v -0.219959 0.052426 0.419953
v 0.145027 -0.052426 0.419953
v 0.000000 -0.052426 0.275699
v -0.145027 -0.052426 0.419953
v -0.145027 0.052426 0.419953
v 0.000000 0.052426 0.275700
v 0.145027 0.052426 0.419954
v 0.490722 0.116961 0.110738
v 0.490722 -0.116961 0.110738
v 0.000000 -0.116961 -0.377370
v 0.000000 0.116961 -0.377370
v -0.490722 -0.116961 0.110738
v -0.490722 0.116961 0.110737
v 0.323551 -0.116961 0.110738
v 0.000000 -0.116961 -0.211089
v -0.323551 -0.116961 0.110738
v -0.323551 0.116961 0.110738
v 0.000000 0.116961 -0.211089
v 0.323551 0.116961 0.110738
v 0.211308 0.076386 0.263424
v 0.000000 0.076386 0.053242
v -0.211308 0.076386 0.263424
v -0.211308 -0.076386 0.263424
v 0.000000 -0.076386 0.053242
v 0.211308 -0.076386 0.263424
v -0.320486 0.076386 0.263424
v -0.320485 -0.076386 0.263424
v 0.000000 0.076386 -0.055354
v 0.000000 -0.076386 -0.055354
v 0.320486 -0.076386 0.263424
v 0.320486 0.076386 0.263424
vn 0.705216 0.000002 -0.708993
vn -0.705215 -0.000001 -0.708993
vn 0.000000 -1.000000 0.000000
vn 0.000000 1.000000 0.000000
vn -0.000001 -0.000002 1.000000
vn -0.705215 -0.000000 0.708993
vn -0.000000 0.000000 1.000000
vn 0.705215 -0.000000 0.708993
vn -0.000001 -0.000001 1.000000
vn 0.705215 -0.000001 0.708993
vn -0.000001 0.000000 1.000000
vn -0.705215 -0.000001 0.708993
vn 0.705215 0.000000 -0.708993
vn -0.705215 0.000000 -0.708994
vn 0.000000 -0.000001 1.000000
vn -0.705216 -0.000002 0.708993
vn 0.705215 0.000001 -0.708993
vn -0.705215 0.000001 -0.708994
vn 0.000000 0.000001 1.000000
s off
f 1//1 2//1 4//1
f 5//2 6//2 3//2
f 2//3 7//3 8//3
f 5//3 3//3 8//3
f 6//4 10//4 11//4
f 12//4 1//4 11//4
f 2//5 1//5 12//5
f 8//6 7//6 11//6
f 9//7 10//7 6//7
f 11//8 10//8 8//8
f 13//1 14//1 16//1
f 17//2 18//2 15//2
f 14//3 19//3 20//3
f 17//3 15//3 20//3
f 18//4 22//4 23//4
f 24//4 13//4 23//4
f 14//9 13//9 24//9
f 20//6 19//6 23//6
f 21//7 22//7 17//7
f 23//8 22//8 20//8
f 26//10 27//10 29//10
f 28//11 27//11 31//11
f 29//12 30//12 26//12
f 35//5 36//5 25//5
f 25//4 36//4 26//4
f 31//4 27//4 26//4
f 32//3 34//3 29//3
f 35//3 30//3 29//3
f 32//2 31//2 34//2
f 36//1 35//1 33//1
f 2//13 3//13 4//13
f 6//14 4//14 3//14
f 3//3 2//3 8//3
f 9//3 5//3 8//3
f 4//4 6//4 11//4
f 1//4 4//4 11//4
f 7//15 2//15 12//15
f 7//16 12//16 11//16
f 5//7 9//7 6//7
f 10//8 9//8 8//8
f 14//17 15//17 16//17
f 18//18 16//18 15//18
f 15//3 14//3 20//3
f 21//3 17//3 20//3
f 16//4 18//4 23//4
f 13//4 16//4 23//4
f 19//15 14//15 24//15
f 19//16 24//16 23//16
f 22//7 18//7 17//7
f 22//8 21//8 20//8
f 27//8 28//8 29//8
f 32//19 28//19 31//19
f 30//16 25//16 26//16
f 30//15 35//15 25//15
f 36//4 33//4 26//4
f 33//4 31//4 26//4
f 28//3 32//3 29//3
f 34//3 35//3 29//3
f 31//18 33//18 34//18
f 35//17 34//17 33//17
