# Blender v2.68 (sub 0) OBJ File: 'Bullet.blend'
# www.blender.org
o Cylinder
v 0.055398 0.022332 0.008637
v 0.055398 0.017608 0.015961
v 0.055398 0.010538 0.020855
v 0.055398 0.002199 0.022573
v 0.055398 -0.006140 0.020855
v 0.055398 -0.013210 0.015961
v 0.055398 -0.017933 0.008637
v 0.055398 0.023991 -0.000003
v 0.057761 0.022332 0.007979
v 0.059764 0.017608 0.014746
v 0.061102 0.010538 0.019267
v 0.061573 0.002199 0.020855
v 0.061103 -0.006140 0.019267
v 0.059764 -0.013210 0.014746
v 0.057761 -0.017933 0.007979
v 0.059764 0.022332 0.006106
v 0.063465 0.017608 0.011285
v 0.065938 0.010538 0.014746
v 0.066807 0.002199 0.015961
v 0.065938 -0.006140 0.014746
v 0.063465 -0.013210 0.011285
v 0.059764 -0.017933 0.006106
v 0.061102 0.022332 0.003304
v 0.065938 0.017608 0.006106
v 0.069169 0.010538 0.007979
v 0.070304 0.002199 0.008637
v 0.069169 -0.006140 0.007979
v 0.065938 -0.013210 0.006106
v 0.061103 -0.017933 0.003304
v 0.061573 0.022332 -0.000003
v 0.066807 0.017608 -0.000003
v 0.070304 0.010538 -0.000003
v 0.071532 0.002199 -0.000003
v 0.070304 -0.006140 -0.000003
v 0.066807 -0.013210 -0.000003
v 0.061573 -0.017933 -0.000003
v 0.061102 0.022332 -0.003309
v 0.065938 0.017608 -0.006111
v 0.069169 0.010538 -0.007984
v 0.070304 0.002199 -0.008642
v 0.069170 -0.006140 -0.007984
v 0.065938 -0.013210 -0.006111
v 0.061103 -0.017933 -0.003309
v 0.059764 0.022332 -0.006111
v 0.063465 0.017608 -0.011290
v 0.065938 0.010538 -0.014751
v 0.066807 0.002199 -0.015966
v 0.065938 -0.006140 -0.014751
v 0.063465 -0.013210 -0.011290
v 0.059764 -0.017933 -0.006111
v 0.057761 0.022332 -0.007984
v 0.059764 0.017608 -0.014751
v 0.061102 0.010538 -0.019272
v 0.061573 0.002199 -0.020860
v 0.061103 -0.006140 -0.019272
v 0.059764 -0.013210 -0.014751
v 0.057761 -0.017933 -0.007984
v 0.055398 0.022332 -0.008642
v 0.055398 0.017608 -0.015966
v 0.055398 0.010538 -0.020860
v 0.055398 0.002199 -0.022578
v 0.055398 -0.006140 -0.020860
v 0.055398 -0.013210 -0.015966
v 0.055398 -0.017933 -0.008642
v 0.055398 -0.019592 -0.000003
v -0.064623 0.002199 0.022573
v 0.055372 0.002199 0.022573
v -0.064623 -0.006140 0.020855
v 0.055372 -0.006140 0.020855
v -0.064623 -0.013210 0.015961
v 0.055372 -0.013210 0.015961
v -0.064623 -0.017933 0.008637
v 0.055372 -0.017933 0.008637
v -0.064623 -0.019592 -0.000003
v 0.055372 -0.019592 -0.000003
v -0.064623 -0.017933 -0.008642
v 0.055372 -0.017933 -0.008642
v -0.064623 -0.013210 -0.015966
v 0.055372 -0.013210 -0.015966
v -0.064623 -0.006140 -0.020860
v 0.055372 -0.006140 -0.020860
v -0.064623 0.002199 -0.022578
v 0.055372 0.002199 -0.022578
v -0.064623 0.010538 -0.020860
v 0.055372 0.010538 -0.020860
v -0.064623 0.017608 -0.015966
v 0.055372 0.017608 -0.015966
v -0.064623 0.022332 -0.008642
v 0.055372 0.022332 -0.008642
v -0.064623 0.023991 -0.000003
v 0.055372 0.023991 -0.000003
v -0.064623 0.022332 0.008637
v 0.055372 0.022332 0.008637
v -0.064623 0.017608 0.015961
v 0.055372 0.017608 0.015961
v -0.064623 0.010538 0.020855
v 0.055372 0.010538 0.020855
vn -0.263007 0.194725 -0.944939
vn -0.149172 0.830968 -0.535948
vn -0.149171 -0.830968 -0.535948
vn -0.263007 -0.194726 -0.944939
vn -0.223083 0.554821 -0.801503
vn -0.223088 -0.554820 -0.801503
vn -0.672435 0.174826 -0.719213
vn -0.409267 0.800561 -0.437724
vn -0.409265 -0.800560 -0.437728
vn -0.672435 -0.174827 -0.719213
vn -0.586545 0.512249 -0.627348
vn -0.586543 -0.512252 -0.627348
vn -0.891507 0.154870 -0.425712
vn -0.583566 0.762755 -0.278667
vn -0.583573 -0.762750 -0.278665
vn -0.891508 -0.154870 -0.425711
vn -0.798458 0.465932 -0.381277
vn -0.798456 -0.465936 -0.381277
vn -0.979688 0.144277 -0.139269
vn -0.666960 0.739036 -0.094818
vn -0.666962 -0.739034 -0.094818
vn -0.979688 -0.144278 -0.139264
vn -0.889129 0.439856 -0.126395
vn -0.889128 -0.439858 -0.126395
vn -0.979689 0.144275 0.139263
vn -0.666964 0.739033 0.094810
vn -0.666965 -0.739032 0.094810
vn -0.979688 -0.144280 0.139263
vn -0.889129 0.439857 0.126394
vn -0.889131 -0.439855 0.126388
vn -0.891508 0.154869 0.425711
vn -0.583565 0.762756 0.278666
vn -0.583568 -0.762753 0.278669
vn -0.891508 -0.154870 0.425711
vn -0.798456 0.465933 0.381280
vn -0.798455 -0.465935 0.381279
vn -0.672438 0.174825 0.719210
vn -0.409259 0.800564 0.437727
vn -0.409262 -0.800561 0.437729
vn -0.672438 -0.174825 0.719210
vn -0.586544 0.512251 0.627347
vn -0.586541 -0.512254 0.627348
vn -0.263001 0.194729 0.944940
vn -0.149166 0.830970 0.535946
vn -0.149170 -0.830969 0.535947
vn -0.263001 -0.194730 0.944940
vn -0.223083 0.554820 0.801504
vn -0.223084 -0.554820 0.801504
vn -0.052409 -0.980713 -0.188298
vn -0.052412 0.980712 -0.188301
vn -0.148541 -0.976061 -0.158874
vn -0.148547 0.976059 -0.158876
vn -0.220835 -0.969594 -0.105452
vn -0.220840 0.969592 -0.105456
vn -0.259283 -0.965098 -0.036861
vn -0.259289 0.965096 -0.036862
vn -0.259283 -0.965098 0.036861
vn -0.259289 0.965096 0.036864
vn -0.220836 -0.969593 0.105450
vn -0.220843 0.969592 0.105452
vn -0.148539 -0.976061 0.158874
vn -0.148546 0.976060 0.158876
vn -0.052408 -0.980713 0.188298
vn -0.052412 0.980712 0.188301
vn 0.000000 0.201829 -0.979421
vn 0.000000 0.569167 -0.822222
vn 0.000000 0.840371 -0.542012
vn 0.000000 0.982062 -0.188560
vn 0.000000 0.982062 0.188560
vn 0.000000 0.840371 0.542012
vn 0.000000 0.569169 0.822220
vn 0.000000 0.201829 0.979421
vn 0.000000 -0.201831 0.979420
vn -0.000000 -0.569167 0.822222
vn -0.000000 -0.840371 0.542012
vn -0.000000 -0.982062 0.188561
vn -0.000001 -0.982062 -0.188561
vn -0.000000 -0.840371 -0.542012
vn -1.000000 0.000005 -0.000007
vn -0.000000 -0.201827 -0.979421
vn -0.000000 -0.569167 -0.822222
vn 1.000000 0.000000 -0.000000
vn -0.263008 0.194725 -0.944939
vn -0.149168 0.830969 -0.535947
vn -0.149173 -0.830968 -0.535948
vn -0.263008 -0.194725 -0.944939
vn -0.223084 0.554821 -0.801503
vn -0.223084 -0.554822 -0.801502
vn -0.672436 0.174825 -0.719212
vn -0.409257 0.800565 -0.437726
vn -0.409258 -0.800563 -0.437730
vn -0.672436 -0.174825 -0.719212
vn -0.586546 0.512249 -0.627348
vn -0.586544 -0.512251 -0.627348
vn -0.891508 0.154869 -0.425711
vn -0.583571 0.762753 -0.278664
vn -0.583572 -0.762751 -0.278666
vn -0.798457 0.465933 -0.381278
vn -0.798456 -0.465935 -0.381277
vn -0.979689 0.144275 -0.139266
vn -0.666964 0.739033 -0.094813
vn -0.666965 -0.739032 -0.094814
vn -0.979688 -0.144280 -0.139266
vn -0.889128 0.439857 -0.126397
vn -0.889131 -0.439855 -0.126391
vn -0.979688 0.144277 0.139265
vn -0.666954 0.739041 0.094823
vn -0.666959 -0.739036 0.094818
vn -0.979689 -0.144278 0.139261
vn -0.889130 0.439855 0.126391
vn -0.889129 -0.439858 0.126391
vn -0.891506 0.154872 0.425713
vn -0.583577 0.762749 0.278659
vn -0.583580 -0.762746 0.278661
vn -0.891506 -0.154872 0.425713
vn -0.798454 0.465935 0.381281
vn -0.798452 -0.465938 0.381281
vn -0.672434 0.174829 0.719213
vn -0.409264 0.800562 0.437726
vn -0.409259 -0.800562 0.437730
vn -0.672431 -0.174832 0.719215
vn -0.586545 0.512250 0.627347
vn -0.586548 -0.512249 0.627346
vn -0.263006 0.194725 0.944939
vn -0.149171 0.830969 0.535947
vn -0.149169 -0.830969 0.535947
vn -0.263007 -0.194725 0.944939
vn -0.223082 0.554820 0.801504
vn -0.223083 -0.554820 0.801504
vn 0.000000 0.201831 -0.979420
vn 0.000000 0.569166 0.822222
vn 0.000000 0.201831 0.979420
vn -0.000000 -0.569166 0.822223
vn -0.000001 -0.982062 0.188557
vn -0.000000 -0.982062 -0.188557
vn -1.000000 -0.000000 0.000001
vn -1.000000 -0.000000 0.000000
vn -1.000000 -0.000001 0.000005
vn -1.000000 -0.000001 0.000001
vn -1.000000 -0.000000 -0.000004
vn -1.000000 -0.000001 -0.000004
vn -1.000000 -0.000001 0.000000
vn -1.000000 -0.000001 -0.000001
vn -1.000000 -0.000002 0.000009
vn 0.000000 -0.201831 -0.979420
vn -0.000000 -0.569166 -0.822223
vn 1.000000 -0.000000 0.000003
vn 1.000000 0.000000 0.000004
vn 1.000000 0.000000 0.000002
vn 1.000000 0.000002 -0.000004
vn 1.000000 0.000002 -0.000008
vn 1.000000 0.000002 -0.000006
vn 1.000000 -0.000003 0.000020
vn 1.000000 0.000011 -0.000012
s off
f 5//1 4//1 13//1
f 7//2 6//2 15//2
f 2//3 1//3 9//3
f 4//4 3//4 11//4
f 6//5 5//5 14//5
f 3//6 2//6 10//6
f 13//7 12//7 20//7
f 15//8 14//8 22//8
f 10//9 9//9 16//9
f 12//10 11//10 18//10
f 14//11 13//11 21//11
f 11//12 10//12 17//12
f 20//13 19//13 27//13
f 22//14 21//14 29//14
f 17//15 16//15 23//15
f 19//16 18//16 25//16
f 21//17 20//17 28//17
f 18//18 17//18 24//18
f 27//19 26//19 34//19
f 29//20 28//20 36//20
f 24//21 23//21 30//21
f 26//22 25//22 32//22
f 28//23 27//23 35//23
f 25//24 24//24 31//24
f 34//25 33//25 40//25
f 36//26 35//26 42//26
f 31//27 30//27 38//27
f 33//28 32//28 40//28
f 35//29 34//29 41//29
f 32//30 31//30 39//30
f 41//31 40//31 47//31
f 43//32 42//32 49//32
f 38//33 37//33 45//33
f 40//34 39//34 47//34
f 42//35 41//35 48//35
f 39//36 38//36 46//36
f 48//37 47//37 54//37
f 50//38 49//38 56//38
f 45//39 44//39 52//39
f 47//40 46//40 54//40
f 49//41 48//41 55//41
f 46//42 45//42 53//42
f 55//43 54//43 61//43
f 57//44 56//44 63//44
f 52//45 51//45 59//45
f 54//46 53//46 61//46
f 56//47 55//47 62//47
f 53//48 52//48 60//48
f 1//49 8//49 9//49
f 65//50 7//50 15//50
f 9//51 8//51 16//51
f 65//52 15//52 22//52
f 16//53 8//53 23//53
f 65//54 22//54 29//54
f 23//55 8//55 30//55
f 65//56 29//56 36//56
f 30//57 8//57 37//57
f 65//58 36//58 43//58
f 37//59 8//59 44//59
f 65//60 43//60 50//60
f 44//61 8//61 51//61
f 65//62 50//62 57//62
f 51//63 8//63 58//63
f 65//64 57//64 64//64
f 66//65 67//65 68//65
f 68//66 69//66 70//66
f 70//67 71//67 72//67
f 72//68 73//68 74//68
f 74//69 75//69 76//69
f 76//70 77//70 78//70
f 78//71 79//71 80//71
f 80//72 81//72 82//72
f 82//73 83//73 84//73
f 84//74 85//74 86//74
f 86//75 87//75 88//75
f 88//76 89//76 90//76
f 90//77 91//77 92//77
f 92//78 93//78 94//78
f 69//79 67//79 71//79
f 96//80 97//80 66//80
f 94//81 95//81 96//81
f 66//82 68//82 96//82
f 4//83 12//83 13//83
f 6//84 14//84 15//84
f 10//85 2//85 9//85
f 12//86 4//86 11//86
f 5//87 13//87 14//87
f 11//88 3//88 10//88
f 12//89 19//89 20//89
f 14//90 21//90 22//90
f 17//91 10//91 16//91
f 19//92 12//92 18//92
f 13//93 20//93 21//93
f 18//94 11//94 17//94
f 19//95 26//95 27//95
f 21//96 28//96 29//96
f 24//97 17//97 23//97
f 26//16 19//16 25//16
f 20//98 27//98 28//98
f 25//99 18//99 24//99
f 26//100 33//100 34//100
f 28//101 35//101 36//101
f 31//102 24//102 30//102
f 33//103 26//103 32//103
f 27//104 34//104 35//104
f 32//105 25//105 31//105
f 41//106 34//106 40//106
f 43//107 36//107 42//107
f 30//108 37//108 38//108
f 32//109 39//109 40//109
f 42//110 35//110 41//110
f 31//111 38//111 39//111
f 48//112 41//112 47//112
f 50//113 43//113 49//113
f 37//114 44//114 45//114
f 39//115 46//115 47//115
f 49//116 42//116 48//116
f 38//117 45//117 46//117
f 55//118 48//118 54//118
f 57//119 50//119 56//119
f 44//120 51//120 52//120
f 46//121 53//121 54//121
f 56//122 49//122 55//122
f 45//123 52//123 53//123
f 62//124 55//124 61//124
f 64//125 57//125 63//125
f 51//126 58//126 59//126
f 53//127 60//127 61//127
f 63//128 56//128 62//128
f 52//129 59//129 60//129
f 67//130 69//130 68//130
f 69//66 71//66 70//66
f 71//67 73//67 72//67
f 73//68 75//68 74//68
f 75//69 77//69 76//69
f 77//70 79//70 78//70
f 79//131 81//131 80//131
f 81//132 83//132 82//132
f 83//73 85//73 84//73
f 85//133 87//133 86//133
f 87//75 89//75 88//75
f 89//134 91//134 90//134
f 91//135 93//135 92//135
f 93//78 95//78 94//78
f 81//136 85//136 83//136
f 81//137 87//137 85//137
f 79//138 87//138 81//138
f 79//139 89//139 87//139
f 77//140 89//140 79//140
f 75//137 89//137 77//137
f 75//141 91//141 89//141
f 73//142 91//142 75//142
f 73//142 93//142 91//142
f 73//143 95//143 93//143
f 71//140 95//140 73//140
f 67//144 97//144 71//144
f 97//137 95//137 71//137
f 97//145 67//145 66//145
f 95//146 97//146 96//146
f 96//147 68//147 94//147
f 68//148 70//148 94//148
f 70//149 72//149 94//149
f 94//149 72//149 92//149
f 72//147 74//147 92//147
f 92//150 74//150 90//150
f 74//150 76//150 90//150
f 90//147 76//147 88//147
f 76//149 78//149 88//149
f 88//151 78//151 86//151
f 78//152 80//152 86//152
f 80//153 82//153 86//153
f 82//154 84//154 86//154
