# Blender v2.68 (sub 0) OBJ File: 'Bullet.blend'
# www.blender.org
o Cylinder
v 0.710010 0.364533 -0.005345
v 0.710010 0.361616 -0.009877
v 0.710010 0.357250 -0.012905
v 0.710010 0.352100 -0.013968
v 0.710010 0.346950 -0.012905
v 0.710010 0.342584 -0.009877
v 0.710010 0.339666 -0.005345
v 0.710010 0.365558 -0.000000
v 0.711542 0.364533 -0.004938
v 0.712840 0.361616 -0.009125
v 0.713708 0.357250 -0.011922
v 0.714012 0.352100 -0.012905
v 0.713708 0.346950 -0.011922
v 0.712840 0.342584 -0.009125
v 0.711542 0.339666 -0.004938
v 0.712840 0.364533 -0.003780
v 0.715239 0.361616 -0.006984
v 0.716842 0.357250 -0.009125
v 0.717405 0.352100 -0.009877
v 0.716842 0.346950 -0.009125
v 0.715239 0.342584 -0.006984
v 0.712840 0.339666 -0.003780
v 0.713708 0.364533 -0.002046
v 0.716842 0.361616 -0.003780
v 0.718936 0.357250 -0.004938
v 0.719672 0.352100 -0.005345
v 0.718936 0.346950 -0.004938
v 0.716842 0.342584 -0.003780
v 0.713708 0.339666 -0.002046
v 0.714012 0.364533 -0.000000
v 0.717405 0.361616 -0.000000
v 0.719672 0.357250 -0.000000
v 0.720468 0.352100 -0.000000
v 0.719672 0.346950 -0.000000
v 0.717405 0.342584 -0.000000
v 0.714012 0.339666 -0.000000
v 0.713708 0.364533 0.002046
v 0.716842 0.361616 0.003780
v 0.718936 0.357250 0.004938
v 0.719672 0.352100 0.005345
v 0.718936 0.346950 0.004938
v 0.716842 0.342584 0.003780
v 0.713708 0.339666 0.002046
v 0.712840 0.364533 0.003780
v 0.715239 0.361616 0.006984
v 0.716842 0.357250 0.009125
v 0.717405 0.352100 0.009877
v 0.716842 0.346950 0.009125
v 0.715239 0.342584 0.006984
v 0.712840 0.339666 0.003780
v 0.711542 0.364533 0.004938
v 0.712840 0.361616 0.009125
v 0.713708 0.357250 0.011922
v 0.714012 0.352100 0.012905
v 0.713708 0.346950 0.011922
v 0.712840 0.342584 0.009125
v 0.711542 0.339666 0.004938
v 0.710010 0.364533 0.005345
v 0.710010 0.361616 0.009877
v 0.710010 0.357250 0.012905
v 0.710010 0.352100 0.013968
v 0.710010 0.346950 0.012905
v 0.710010 0.342584 0.009877
v 0.710010 0.339666 0.005345
v 0.710010 0.338642 -0.000000
v 0.632216 0.352100 -0.013968
v 0.709993 0.352100 -0.013968
v 0.632216 0.346950 -0.012905
v 0.709993 0.346950 -0.012905
v 0.632216 0.342584 -0.009877
v 0.709993 0.342584 -0.009877
v 0.632216 0.339666 -0.005345
v 0.709993 0.339666 -0.005345
v 0.632216 0.338642 -0.000000
v 0.709993 0.338642 -0.000000
v 0.632216 0.339666 0.005345
v 0.709993 0.339666 0.005345
v 0.632216 0.342584 0.009877
v 0.709993 0.342584 0.009877
v 0.632216 0.346950 0.012905
v 0.709993 0.346950 0.012905
v 0.632216 0.352100 0.013968
v 0.709993 0.352100 0.013968
v 0.632216 0.357250 0.012905
v 0.709993 0.357250 0.012905
v 0.632216 0.361616 0.009877
v 0.709993 0.361616 0.009877
v 0.632216 0.364533 0.005345
v 0.709993 0.364533 0.005345
v 0.632216 0.365558 -0.000000
v 0.709993 0.365558 -0.000000
v 0.632216 0.364533 -0.005345
v 0.709993 0.364533 -0.005345
v 0.632216 0.361616 -0.009877
v 0.709993 0.361616 -0.009877
v 0.632216 0.357250 -0.012905
v 0.709993 0.357250 -0.012905
vn 0.251816 -0.195672 -0.947788
vn 0.142355 -0.832263 -0.535793
vn 0.142355 0.832262 -0.535793
vn 0.251816 0.195672 -0.947788
vn 0.213301 -0.556761 -0.802820
vn 0.213302 0.556758 -0.802822
vn 0.655130 -0.178765 -0.734063
vn 0.393130 -0.807103 -0.440492
vn 0.393130 0.807103 -0.440492
vn 0.655129 0.178765 -0.734064
vn 0.568361 -0.520962 -0.636839
vn 0.568362 0.520960 -0.636840
vn 0.882681 -0.160929 -0.441561
vn 0.565051 -0.775125 -0.282662
vn 0.565052 0.775125 -0.282662
vn 0.882681 0.160928 -0.441561
vn 0.784379 -0.480396 -0.392389
vn 0.784379 0.480396 -0.392389
vn 0.977734 -0.151119 -0.145600
vn 0.648933 -0.754683 -0.096644
vn 0.648933 0.754683 -0.096644
vn 0.977734 0.151118 -0.145599
vn 0.879854 -0.456826 -0.131022
vn 0.879854 0.456826 -0.131022
vn 0.977733 -0.151123 0.145604
vn 0.648939 -0.754678 0.096636
vn 0.648939 0.754678 0.096636
vn 0.977733 0.151123 0.145604
vn 0.879852 -0.456829 0.131026
vn 0.879853 0.456827 0.131024
vn 0.882681 -0.160929 0.441560
vn 0.565045 -0.775128 0.282667
vn 0.565045 0.775128 0.282667
vn 0.882682 0.160928 0.441560
vn 0.784382 -0.480393 0.392386
vn 0.784382 0.480393 0.392386
vn 0.655134 -0.178761 0.734060
vn 0.393129 -0.807104 0.440492
vn 0.393129 0.807104 0.440492
vn 0.655134 0.178760 0.734061
vn 0.568362 -0.520962 0.636839
vn 0.568359 0.520962 0.636841
vn 0.251815 -0.195674 0.947787
vn 0.142353 -0.832263 0.535793
vn 0.142353 0.832263 0.535792
vn 0.251815 0.195674 0.947787
vn 0.213300 -0.556761 0.802820
vn 0.213301 0.556758 0.802822
vn 0.049947 0.980900 -0.187990
vn 0.049947 -0.980900 -0.187990
vn 0.141684 0.977099 -0.158753
vn 0.141684 -0.977099 -0.158753
vn 0.210897 0.971799 -0.105499
vn 0.210897 -0.971798 -0.105499
vn 0.247822 0.968102 -0.036908
vn 0.247822 -0.968102 -0.036908
vn 0.247822 0.968102 0.036908
vn 0.247822 -0.968102 0.036908
vn 0.210897 0.971799 0.105499
vn 0.210897 -0.971798 0.105499
vn 0.141684 0.977099 0.158754
vn 0.141684 -0.977099 0.158753
vn 0.049947 0.980900 0.187990
vn 0.049947 -0.980900 0.187990
vn -0.000000 -0.202186 -0.979347
vn -0.000000 -0.569876 -0.821731
vn -0.000000 -0.840826 -0.541306
vn 0.000000 -0.982126 -0.188225
vn -0.000000 -0.982126 0.188225
vn -0.000000 -0.840826 0.541305
vn -0.000000 -0.569876 0.821731
vn 0.000000 -0.202186 0.979347
vn 0.000000 0.202187 0.979347
vn 0.000000 0.569874 0.821732
vn 0.000000 0.840826 0.541306
vn 0.000000 0.982126 0.188225
vn 0.000000 0.982126 -0.188225
vn 0.000000 0.840826 -0.541306
vn 1.000000 0.000000 0.000000
vn 0.000000 0.202186 -0.979347
vn 0.000000 0.569874 -0.821732
vn -1.000000 -0.000000 -0.000000
vn 0.251815 -0.195673 -0.947788
vn 0.142355 0.832263 -0.535793
vn 0.251815 0.195673 -0.947788
vn 0.213300 -0.556762 -0.802820
vn 0.213300 0.556759 -0.802821
vn 0.655134 -0.178761 -0.734060
vn 0.393128 -0.807104 -0.440493
vn 0.393128 0.807104 -0.440493
vn 0.655134 0.178760 -0.734060
vn 0.568363 -0.520961 -0.636838
vn 0.568361 0.520961 -0.636841
vn 0.565045 -0.775128 -0.282666
vn 0.565045 0.775128 -0.282666
vn 0.784382 -0.480393 -0.392387
vn 0.784382 0.480393 -0.392387
vn 0.977733 -0.151123 -0.145604
vn 0.648939 -0.754678 -0.096636
vn 0.648939 0.754678 -0.096636
vn 0.977733 0.151123 -0.145604
vn 0.879852 -0.456829 -0.131026
vn 0.879853 0.456827 -0.131023
vn 0.977734 -0.151119 0.145600
vn 0.648933 -0.754683 0.096644
vn 0.648933 0.754683 0.096644
vn 0.977734 0.151118 0.145600
vn 0.879854 -0.456826 0.131022
vn 0.879854 0.456826 0.131022
vn 0.565052 -0.775125 0.282662
vn 0.565051 0.775125 0.282662
vn 0.784378 -0.480397 0.392389
vn 0.784378 0.480397 0.392389
vn 0.655129 -0.178766 0.734063
vn 0.655128 0.178766 0.734064
vn 0.568363 -0.520961 0.636838
vn 0.568364 0.520958 0.636839
vn 0.251816 -0.195673 0.947787
vn 0.142355 -0.832263 0.535793
vn 0.142356 0.832262 0.535793
vn 0.251816 0.195673 0.947787
vn 0.213299 -0.556762 0.802820
vn 0.213299 0.556759 0.802822
vn -0.000000 -0.202187 -0.979347
vn -0.000000 -0.569876 -0.821730
vn -0.000000 -0.202188 0.979347
vn 0.000000 0.202188 0.979347
vn 0.000000 0.840826 0.541305
vn 0.000000 0.202187 -0.979347
vn -1.000000 0.000000 0.000011
vn -1.000000 -0.000002 0.000000
vn -1.000000 -0.000002 0.000002
vn -1.000000 -0.000003 -0.000002
vn -1.000000 -0.000003 0.000005
vn -1.000000 -0.000008 -0.000018
s off
f 5//1 4//1 13//1
f 7//2 6//2 15//2
f 2//3 1//3 9//3
f 4//4 3//4 11//4
f 6//5 5//5 14//5
f 3//6 2//6 10//6
f 13//7 12//7 20//7
f 15//8 14//8 22//8
f 10//9 9//9 16//9
f 12//10 11//10 18//10
f 14//11 13//11 21//11
f 11//12 10//12 17//12
f 20//13 19//13 27//13
f 22//14 21//14 29//14
f 17//15 16//15 23//15
f 19//16 18//16 25//16
f 21//17 20//17 28//17
f 18//18 17//18 24//18
f 27//19 26//19 34//19
f 29//20 28//20 36//20
f 24//21 23//21 30//21
f 26//22 25//22 32//22
f 28//23 27//23 35//23
f 25//24 24//24 31//24
f 34//25 33//25 40//25
f 36//26 35//26 42//26
f 31//27 30//27 38//27
f 33//28 32//28 40//28
f 35//29 34//29 41//29
f 32//30 31//30 39//30
f 41//31 40//31 47//31
f 43//32 42//32 49//32
f 38//33 37//33 45//33
f 40//34 39//34 47//34
f 42//35 41//35 48//35
f 39//36 38//36 46//36
f 48//37 47//37 54//37
f 50//38 49//38 56//38
f 45//39 44//39 52//39
f 47//40 46//40 54//40
f 49//41 48//41 55//41
f 46//42 45//42 53//42
f 55//43 54//43 61//43
f 57//44 56//44 63//44
f 52//45 51//45 59//45
f 54//46 53//46 61//46
f 56//47 55//47 62//47
f 53//48 52//48 60//48
f 1//49 8//49 9//49
f 65//50 7//50 15//50
f 9//51 8//51 16//51
f 65//52 15//52 22//52
f 16//53 8//53 23//53
f 65//54 22//54 29//54
f 23//55 8//55 30//55
f 65//56 29//56 36//56
f 30//57 8//57 37//57
f 65//58 36//58 43//58
f 37//59 8//59 44//59
f 65//60 43//60 50//60
f 44//61 8//61 51//61
f 65//62 50//62 57//62
f 51//63 8//63 58//63
f 65//64 57//64 64//64
f 66//65 67//65 68//65
f 68//66 69//66 70//66
f 70//67 71//67 72//67
f 72//68 73//68 75//68
f 74//69 75//69 76//69
f 76//70 77//70 78//70
f 78//71 79//71 80//71
f 80//72 81//72 82//72
f 82//73 83//73 84//73
f 84//74 85//74 86//74
f 86//75 87//75 88//75
f 88//76 89//76 90//76
f 90//77 91//77 92//77
f 92//78 93//78 94//78
f 69//79 67//79 71//79
f 96//80 97//80 66//80
f 94//81 95//81 96//81
f 66//82 68//82 96//82
f 4//83 12//83 13//83
f 6//2 14//2 15//2
f 10//84 2//84 9//84
f 12//85 4//85 11//85
f 5//86 13//86 14//86
f 11//87 3//87 10//87
f 12//88 19//88 20//88
f 14//89 21//89 22//89
f 17//90 10//90 16//90
f 19//91 12//91 18//91
f 13//92 20//92 21//92
f 18//93 11//93 17//93
f 19//13 26//13 27//13
f 21//94 28//94 29//94
f 24//95 17//95 23//95
f 26//16 19//16 25//16
f 20//96 27//96 28//96
f 25//97 18//97 24//97
f 26//98 33//98 34//98
f 28//99 35//99 36//99
f 31//100 24//100 30//100
f 33//101 26//101 32//101
f 27//102 34//102 35//102
f 32//103 25//103 31//103
f 41//104 34//104 40//104
f 43//105 36//105 42//105
f 30//106 37//106 38//106
f 32//107 39//107 40//107
f 42//108 35//108 41//108
f 31//109 38//109 39//109
f 48//31 41//31 47//31
f 50//110 43//110 49//110
f 37//111 44//111 45//111
f 39//34 46//34 47//34
f 49//112 42//112 48//112
f 38//113 45//113 46//113
f 55//114 48//114 54//114
f 57//38 50//38 56//38
f 44//39 51//39 52//39
f 46//115 53//115 54//115
f 56//116 49//116 55//116
f 45//117 52//117 53//117
f 62//118 55//118 61//118
f 64//119 57//119 63//119
f 51//120 58//120 59//120
f 53//121 60//121 61//121
f 63//122 56//122 62//122
f 52//123 59//123 60//123
f 67//124 69//124 68//124
f 69//125 71//125 70//125
f 71//67 73//67 72//67
f 74//68 72//68 75//68
f 75//69 77//69 76//69
f 77//70 79//70 78//70
f 79//71 81//71 80//71
f 81//126 83//126 82//126
f 83//127 85//127 84//127
f 85//74 87//74 86//74
f 87//128 89//128 88//128
f 89//76 91//76 90//76
f 91//77 93//77 92//77
f 93//78 95//78 94//78
f 81//79 85//79 83//79
f 81//79 87//79 85//79
f 79//79 87//79 81//79
f 79//79 89//79 87//79
f 77//79 89//79 79//79
f 77//79 91//79 89//79
f 75//79 91//79 77//79
f 75//79 93//79 91//79
f 73//79 93//79 75//79
f 73//79 95//79 93//79
f 71//79 95//79 73//79
f 67//79 97//79 71//79
f 97//79 95//79 71//79
f 97//129 67//129 66//129
f 95//81 97//81 96//81
f 68//82 70//82 96//82
f 96//82 70//82 94//82
f 94//82 70//82 92//82
f 70//82 72//82 92//82
f 72//130 74//130 92//130
f 92//131 74//131 90//131
f 74//131 76//131 90//131
f 90//131 76//131 88//131
f 76//132 78//132 88//132
f 88//133 78//133 86//133
f 78//134 80//134 86//134
f 80//135 82//135 86//135
f 82//82 84//82 86//82
