# Blender v2.68 (sub 0) OBJ File: 'Wall.blend'
# www.blender.org
o Cube.001
v 0.500000 0.000000 -0.500000
v 0.500000 0.750000 -0.500000
v 0.500000 0.750000 -0.300000
v 0.500000 0.750000 -0.100000
v 0.500000 0.000000 -0.100000
v 0.500000 0.000000 -0.300000
v 0.500000 0.750000 0.100000
v 0.500000 -0.000000 0.100000
v 0.500000 0.750000 0.300000
v 0.500000 -0.000000 0.300000
v 0.500000 0.750000 0.500000
v 0.500000 -0.000000 0.500000
v -0.500000 0.750000 0.300000
v -0.500000 -0.000000 0.300000
v -0.500000 -0.000000 0.500000
v -0.500000 0.750000 0.100000
v -0.500000 -0.000000 0.100000
v -0.500000 0.750000 -0.100000
v -0.500000 0.000000 -0.100000
v -0.500000 0.750000 -0.300000
v -0.500000 0.000000 -0.300000
v -0.500000 0.750000 -0.500000
v -0.500000 0.000000 -0.500000
v 0.300000 0.750000 0.500000
v 0.300000 -0.000000 0.500000
v 0.100000 0.750000 0.500000
v 0.100000 -0.000000 0.500000
v -0.100000 0.750000 0.500000
v -0.100000 -0.000000 0.500000
v -0.300000 0.750000 0.500000
v -0.300000 -0.000000 0.500000
v -0.500000 0.750000 0.500000
v 0.300000 0.000000 -0.500000
v 0.300000 0.750000 -0.500000
v 0.100000 0.000000 -0.500000
v 0.100000 0.750000 -0.500000
v -0.100000 0.000000 -0.500000
v -0.100000 0.750000 -0.500000
v -0.300000 0.000000 -0.500000
v -0.300000 0.750000 -0.500000
v 0.300000 0.000000 -0.300000
v 0.100000 0.000000 -0.300000
v -0.100000 0.000000 -0.300000
v -0.300000 0.000000 -0.300000
v 0.300000 0.000000 -0.100000
v 0.100000 0.000000 -0.100000
v -0.100000 0.000000 -0.100000
v -0.300000 0.000000 -0.100000
v 0.300000 -0.000000 0.100000
v 0.100000 -0.000000 0.100000
v -0.100000 -0.000000 0.100000
v -0.300000 -0.000000 0.100000
v 0.300000 -0.000000 0.300000
v 0.100000 -0.000000 0.300000
v -0.100000 -0.000000 0.300000
v -0.300000 -0.000000 0.300000
v -0.100000 0.750000 -0.300000
v 0.300000 0.750000 -0.300000
v -0.300000 0.750000 -0.100000
v -0.300000 0.750000 -0.300000
v -0.100000 0.750000 -0.100000
v 0.100000 0.750000 -0.100000
v 0.100000 0.750000 -0.300000
v 0.300000 0.750000 -0.100000
v -0.300000 0.750000 0.100000
v -0.100000 0.750000 0.100000
v 0.300000 0.750000 0.100000
v -0.300000 0.750000 0.300000
v -0.100000 0.750000 0.300000
v 0.100000 0.750000 0.300000
v 0.100000 0.750000 0.100000
v 0.300000 0.750000 0.300000
v 0.300000 0.750000 0.500000
v 0.100000 0.750000 0.300000
v -0.100000 0.750000 0.500000
v -0.300000 0.750000 0.300000
v 0.300000 0.750000 0.100000
v 0.100000 0.750000 -0.100000
v -0.100000 0.750000 0.100000
v -0.300000 0.750000 -0.100000
v 0.300000 0.750000 -0.300000
v 0.100000 0.750000 -0.500000
v -0.100000 0.750000 -0.300000
v -0.300000 0.750000 -0.500000
v -0.500000 0.750000 0.300000
v -0.100000 0.750000 0.300000
v 0.300000 0.750000 0.300000
v -0.300000 0.750000 0.100000
v 0.100000 0.750000 0.100000
v 0.500000 0.750000 0.100000
v -0.500000 0.750000 -0.100000
v -0.100000 0.750000 -0.100000
v 0.300000 0.750000 -0.100000
v -0.300000 0.750000 -0.300000
v 0.100000 0.750000 -0.300000
v 0.500000 0.750000 -0.300000
v -0.300000 0.750000 0.500000
v 0.100000 0.750000 0.500000
v 0.500000 0.750000 0.500000
v -0.500000 0.750000 -0.500000
v -0.100000 0.750000 -0.500000
v 0.300000 0.750000 -0.500000
v -0.500000 0.750000 -0.300000
v -0.500000 0.750000 0.100000
v -0.500000 0.750000 0.500000
v 0.500000 0.750000 0.300000
v 0.500000 0.750000 -0.100000
v 0.500000 0.750000 -0.500000
v 0.500000 1.000000 -0.500000
v 0.500000 1.000000 -0.300000
v 0.500000 1.000000 -0.100000
v 0.500000 1.000000 0.100000
v 0.500000 1.000000 0.300000
v 0.500000 1.000000 0.500000
v -0.500000 1.000000 0.500000
v -0.500000 1.000000 0.300000
v -0.500000 1.000000 0.100000
v -0.500000 1.000000 -0.100000
v -0.500000 1.000000 -0.300000
v -0.500000 1.000000 -0.500000
v 0.300000 1.000000 -0.500000
v -0.100000 1.000000 -0.500000
v 0.100000 1.000000 -0.500000
v -0.300000 1.000000 -0.500000
v 0.300000 1.000000 0.500000
v 0.100000 1.000000 0.500000
v -0.100000 1.000000 0.500000
v -0.300000 1.000000 0.500000
v 0.300000 1.000000 -0.300000
v 0.100000 1.000000 -0.300000
v -0.100000 1.000000 -0.300000
v -0.300000 1.000000 -0.300000
v 0.300000 1.000000 -0.100000
v -0.100000 1.000000 -0.100000
v 0.100000 1.000000 -0.100000
v -0.300000 1.000000 -0.100000
v 0.300000 1.000000 0.100000
v 0.100000 1.000000 0.100000
v -0.100000 1.000000 0.100000
v -0.300000 1.000000 0.100000
v 0.300000 1.000000 0.300000
v -0.100000 1.000000 0.300000
v 0.100000 1.000000 0.300000
v -0.300000 1.000000 0.300000
vt 0.665666 0.339256
vt 0.665666 0.832149
vt 0.534228 0.832149
vt 0.402790 0.832149
vt 0.402790 0.339256
vt 0.534228 0.339256
vt 0.271352 0.832149
vt 0.271352 0.339256
vt 0.139914 0.832149
vt 0.139914 0.339256
vt 0.008476 0.832149
vt 0.008476 0.339256
vt 0.141242 0.833946
vt 0.141242 0.341054
vt 0.009804 0.341054
vt 0.272680 0.833946
vt 0.272680 0.341054
vt 0.404118 0.833946
vt 0.404118 0.341054
vt 0.535556 0.833946
vt 0.535556 0.341054
vt 0.666994 0.833946
vt 0.666994 0.341054
vt 0.535984 0.822345
vt 0.535984 0.329453
vt 0.667422 0.329453
vt 0.404547 0.822345
vt 0.404547 0.329453
vt 0.273109 0.822345
vt 0.273109 0.329453
vt 0.141671 0.822345
vt 0.141671 0.329453
vt 0.010233 0.822345
vt 0.010233 0.329453
vt 0.667422 0.822345
vt 0.667422 0.000858
vt 0.667422 0.132296
vt 0.535984 0.132296
vt 0.404547 0.132296
vt 0.404547 0.000858
vt 0.535984 0.000858
vt 0.273109 0.132296
vt 0.273109 0.000858
vt 0.141671 0.132296
vt 0.141671 0.000858
vt 0.010233 0.132296
vt 0.010233 0.000858
vt 0.535984 0.263733
vt 0.404547 0.263733
vt 0.273109 0.263733
vt 0.141671 0.263733
vt 0.010233 0.263733
vt 0.535984 0.395171
vt 0.667422 0.263733
vt 0.404547 0.395171
vt 0.273109 0.395171
vt 0.141671 0.395171
vt 0.010233 0.395171
vt 0.535984 0.526609
vt 0.667422 0.395171
vt 0.404547 0.526609
vt 0.273109 0.526609
vt 0.141671 0.526609
vt 0.010233 0.526609
vt 0.535984 0.658047
vt 0.667422 0.526609
vt 0.404547 0.658047
vt 0.273109 0.658047
vt 0.141671 0.658047
vt 0.010233 0.658047
vt -0.154494 0.012459
vt -0.155821 0.667851
vt 0.665666 0.996446
vt 0.534228 0.996446
vt 0.402790 0.996446
vt 0.271352 0.996446
vt 0.139914 0.996446
vt 0.008476 0.996446
vt 0.009804 0.833946
vt 0.009804 0.998244
vt 0.141242 0.998244
vt 0.272680 0.998244
vt 0.404118 0.998244
vt 0.535556 0.998244
vt 0.666994 0.998244
vt 0.535984 0.986642
vt 0.667422 0.986642
vt 0.273109 0.986642
vt 0.404547 0.986642
vt 0.010233 0.986642
vt 0.141671 0.986642
vt 0.667464 0.828554
vt 0.667464 0.992851
vt 0.536026 0.992851
vt 0.135462 0.989726
vt 0.135462 0.825429
vt 0.004024 0.825429
vt 0.536026 0.828554
vt 0.266900 0.989726
vt 0.266900 0.825429
vt 0.398338 0.825429
vt 0.273150 0.828554
vt 0.273150 0.992851
vt 0.404588 0.992851
vt 0.404588 0.828554
vt 0.529776 0.989726
vt 0.529776 0.825429
vt 0.661214 0.825429
vt 0.010274 0.828554
vt 0.010274 0.992851
vt 0.141712 0.992851
vt 0.141712 0.828554
vt 0.667422 0.658047
vt 0.004024 0.989726
vt 0.398338 0.989726
vt 0.661214 0.989726
vn 1.000000 0.000000 0.000000
vn -1.000000 0.000000 0.000000
vn 0.000000 -0.000000 1.000000
vn 0.000000 0.000000 -1.000000
vn 0.000000 -1.000000 -0.000000
vn 0.000000 1.000000 0.000000
vn 0.000000 0.000000 0.000000
vn 0.000000 1.000000 0.000001
s off
f 1/1/1 2/2/1 3/3/1
f 4/4/1 5/5/1 6/6/1
f 4/4/1 7/7/1 8/8/1
f 9/9/1 10/10/1 8/8/1
f 11/11/1 12/12/1 10/10/1
f 13/13/2 14/14/2 15/15/2
f 16/16/2 17/17/2 14/14/2
f 18/18/2 19/19/2 17/17/2
f 20/20/2 21/21/2 19/19/2
f 22/22/2 23/23/2 21/21/2
f 24/24/3 25/25/3 12/26/3
f 26/27/3 27/28/3 25/25/3
f 28/29/3 29/30/3 27/28/3
f 30/31/3 31/32/3 29/30/3
f 32/33/3 15/34/3 31/32/3
f 33/25/4 34/24/4 2/35/4
f 35/28/4 36/27/4 34/24/4
f 37/30/4 38/29/4 36/27/4
f 39/32/4 40/31/4 38/29/4
f 23/34/4 22/33/4 40/31/4
f 1/36/5 6/37/5 41/38/5
f 42/39/5 35/40/5 33/41/5
f 42/39/5 43/42/5 37/43/5
f 44/44/5 39/45/5 37/43/5
f 21/46/5 23/47/5 39/45/5
f 45/48/5 41/38/5 6/37/5
f 46/49/5 42/39/5 41/38/5
f 47/50/5 43/42/5 42/39/5
f 47/50/5 48/51/5 44/44/5
f 48/51/5 19/52/5 21/46/5
f 49/53/5 45/48/5 5/54/5
f 50/55/5 46/49/5 45/48/5
f 51/56/5 47/50/5 46/49/5
f 52/57/5 48/51/5 47/50/5
f 17/58/5 19/52/5 48/51/5
f 53/59/5 49/53/5 8/60/5
f 54/61/5 50/55/5 49/53/5
f 55/62/5 51/56/5 50/55/5
f 56/63/5 52/57/5 51/56/5
f 14/64/5 17/58/5 52/57/5
f 25/65/5 53/59/5 10/66/5
f 27/67/5 54/61/5 53/59/5
f 29/68/5 55/62/5 54/61/5
f 29/68/5 31/69/5 56/63/5
f 15/70/5 14/64/5 56/63/5
f 57/42/6 38/43/6 40/45/6
f 58/38/6 34/41/6 36/40/6
f 18/52/6 59/51/6 60/44/6
f 61/50/6 57/42/6 60/44/6
f 62/49/6 63/39/6 57/42/6
f 64/48/6 58/38/6 63/39/6
f 4/54/6 3/37/6 58/38/6
f 65/57/6 66/56/6 61/50/6
f 67/53/6 64/48/6 62/49/6
f 13/64/6 68/63/6 65/57/6
f 68/63/6 69/62/6 66/56/6
f 69/62/6 70/61/6 71/55/6
f 72/59/6 67/53/6 71/55/6
f 9/66/6 7/60/6 67/53/6
f 28/68/6 69/62/6 68/63/6
f 24/65/6 72/59/6 70/61/6
f 72/24/7 24/24/7 73/24/7
f 26/27/7 70/27/7 74/27/7
f 69/29/7 28/29/7 75/29/7
f 30/31/7 68/31/7 76/31/7
f 64/24/7 67/24/7 77/24/7
f 71/27/7 62/27/7 78/27/7
f 61/29/7 66/29/7 79/29/7
f 65/31/7 59/31/7 80/31/7
f 34/24/7 58/24/7 81/24/7
f 63/27/7 36/27/7 82/27/7
f 38/29/7 57/29/7 83/29/7
f 60/31/7 40/31/7 84/31/7
f 68/31/7 13/33/7 85/33/7
f 70/27/7 69/29/7 86/29/7
f 9/35/7 72/24/7 87/24/7
f 16/33/7 65/31/7 88/31/7
f 66/29/7 71/27/7 89/27/7
f 67/24/7 7/35/7 90/35/7
f 59/31/7 18/33/7 91/33/7
f 62/27/7 61/29/7 92/29/7
f 4/35/7 64/24/7 93/24/7
f 20/33/7 60/31/7 94/31/7
f 57/29/7 63/27/7 95/27/7
f 58/24/7 3/35/7 96/35/7
f 32/33/7 30/31/7 97/31/7
f 28/29/7 26/27/7 98/27/7
f 24/24/7 11/35/7 99/35/7
f 40/31/7 22/33/7 100/33/7
f 36/27/7 38/29/7 101/29/7
f 2/35/7 34/24/7 102/24/7
f 22/71/7 20/71/7 103/71/7
f 18/71/7 16/71/7 104/71/7
f 13/71/7 32/71/7 105/71/7
f 11/72/7 9/72/7 106/72/7
f 7/72/7 4/72/7 107/72/7
f 3/72/7 2/72/7 108/72/7
f 108/2/1 109/73/1 110/74/1
f 107/4/1 111/75/1 112/76/1
f 106/9/1 113/77/1 114/78/1
f 105/79/2 115/80/2 116/81/2
f 104/16/2 117/82/2 118/83/2
f 103/20/2 119/84/2 120/85/2
f 102/24/4 121/86/4 109/87/4
f 101/29/4 122/88/4 123/89/4
f 100/33/4 120/90/4 124/91/4
f 99/35/3 114/87/3 125/86/3
f 98/27/3 126/89/3 127/88/3
f 97/31/3 128/91/3 115/90/3
f 96/35/3 110/87/3 129/86/3
f 95/27/3 130/89/3 131/88/3
f 94/31/3 132/91/3 119/90/3
f 93/24/4 133/86/4 111/87/4
f 92/29/4 134/88/4 135/89/4
f 91/33/4 118/90/4 136/91/4
f 90/35/3 112/87/3 137/86/3
f 89/27/3 138/89/3 139/88/3
f 88/31/3 140/91/3 117/90/3
f 87/24/4 141/86/4 113/87/4
f 86/29/4 142/88/4 143/89/4
f 85/33/4 116/90/4 144/91/4
f 84/92/1 124/93/1 132/94/1
f 83/95/2 131/96/2 122/97/2
f 82/92/1 123/93/1 130/94/1
f 81/98/2 129/94/2 121/93/2
f 80/99/1 136/100/1 140/101/1
f 79/102/2 139/103/2 134/104/2
f 78/105/1 135/104/1 138/103/1
f 77/102/2 137/103/2 133/104/2
f 76/106/1 144/107/1 128/108/1
f 75/109/2 127/110/2 142/111/2
f 74/112/1 143/111/1 126/110/1
f 73/109/2 125/110/2 141/111/2
f 119/46/8 132/44/8 124/45/8
f 130/39/8 123/40/8 122/43/8
f 110/37/8 109/36/8 121/41/8
f 117/58/6 140/57/6 136/51/6
f 138/55/6 135/49/6 134/50/6
f 112/60/6 111/54/6 133/48/6
f 115/70/6 128/69/6 144/63/6
f 126/67/6 143/61/6 142/62/6
f 125/65/6 114/113/6 113/66/6
f 6/6/1 1/1/1 3/3/1
f 3/3/1 4/4/1 6/6/1
f 5/5/1 4/4/1 8/8/1
f 7/7/1 9/9/1 8/8/1
f 9/9/1 11/11/1 10/10/1
f 32/79/2 13/13/2 15/15/2
f 13/13/2 16/16/2 14/14/2
f 16/16/2 18/18/2 17/17/2
f 18/18/2 20/20/2 19/19/2
f 20/20/2 22/22/2 21/21/2
f 11/35/3 24/24/3 12/26/3
f 24/24/3 26/27/3 25/25/3
f 26/27/3 28/29/3 27/28/3
f 28/29/3 30/31/3 29/30/3
f 30/31/3 32/33/3 31/32/3
f 1/26/4 33/25/4 2/35/4
f 33/25/4 35/28/4 34/24/4
f 35/28/4 37/30/4 36/27/4
f 37/30/4 39/32/4 38/29/4
f 39/32/4 23/34/4 40/31/4
f 33/41/5 1/36/5 41/38/5
f 41/38/5 42/39/5 33/41/5
f 35/40/5 42/39/5 37/43/5
f 43/42/5 44/44/5 37/43/5
f 44/44/5 21/46/5 39/45/5
f 5/54/5 45/48/5 6/37/5
f 45/48/5 46/49/5 41/38/5
f 46/49/5 47/50/5 42/39/5
f 43/42/5 47/50/5 44/44/5
f 44/44/5 48/51/5 21/46/5
f 8/60/5 49/53/5 5/54/5
f 49/53/5 50/55/5 45/48/5
f 50/55/5 51/56/5 46/49/5
f 51/56/5 52/57/5 47/50/5
f 52/57/5 17/58/5 48/51/5
f 10/66/5 53/59/5 8/60/5
f 53/59/5 54/61/5 49/53/5
f 54/61/5 55/62/5 50/55/5
f 55/62/5 56/63/5 51/56/5
f 56/63/5 14/64/5 52/57/5
f 12/113/5 25/65/5 10/66/5
f 25/65/5 27/67/5 53/59/5
f 27/67/5 29/68/5 54/61/5
f 55/62/5 29/68/5 56/63/5
f 31/69/5 15/70/5 56/63/5
f 60/44/6 57/42/6 40/45/6
f 63/39/6 58/38/6 36/40/6
f 20/46/6 18/52/6 60/44/6
f 59/51/6 61/50/6 60/44/6
f 61/50/6 62/49/6 57/42/6
f 62/49/6 64/48/6 63/39/6
f 64/48/6 4/54/6 58/38/6
f 59/51/6 65/57/6 61/50/6
f 71/55/6 67/53/6 62/49/6
f 16/58/6 13/64/6 65/57/6
f 65/57/6 68/63/6 66/56/6
f 66/56/6 69/62/6 71/55/6
f 70/61/6 72/59/6 71/55/6
f 72/59/6 9/66/6 67/53/6
f 30/69/6 28/68/6 68/63/6
f 26/67/6 24/65/6 70/61/6
f 87/24/7 72/24/7 73/24/7
f 98/27/7 26/27/7 74/27/7
f 86/29/7 69/29/7 75/29/7
f 97/31/7 30/31/7 76/31/7
f 93/24/7 64/24/7 77/24/7
f 89/27/7 71/27/7 78/27/7
f 92/29/7 61/29/7 79/29/7
f 88/31/7 65/31/7 80/31/7
f 102/24/7 34/24/7 81/24/7
f 95/27/7 63/27/7 82/27/7
f 101/29/7 38/29/7 83/29/7
f 94/31/7 60/31/7 84/31/7
f 76/31/7 68/31/7 85/33/7
f 74/27/7 70/27/7 86/29/7
f 106/35/7 9/35/7 87/24/7
f 104/33/7 16/33/7 88/31/7
f 79/29/7 66/29/7 89/27/7
f 77/24/7 67/24/7 90/35/7
f 80/31/7 59/31/7 91/33/7
f 78/27/7 62/27/7 92/29/7
f 107/35/7 4/35/7 93/24/7
f 103/33/7 20/33/7 94/31/7
f 83/29/7 57/29/7 95/27/7
f 81/24/7 58/24/7 96/35/7
f 105/33/7 32/33/7 97/31/7
f 75/29/7 28/29/7 98/27/7
f 73/24/7 24/24/7 99/35/7
f 84/31/7 40/31/7 100/33/7
f 82/27/7 36/27/7 101/29/7
f 108/35/7 2/35/7 102/24/7
f 100/71/7 22/71/7 103/71/7
f 91/71/7 18/71/7 104/71/7
f 85/71/7 13/71/7 105/71/7
f 99/72/7 11/72/7 106/72/7
f 90/72/7 7/72/7 107/72/7
f 96/72/7 3/72/7 108/72/7
f 96/3/1 108/2/1 110/74/1
f 90/7/1 107/4/1 112/76/1
f 99/11/1 106/9/1 114/78/1
f 85/13/2 105/79/2 116/81/2
f 91/18/2 104/16/2 118/83/2
f 100/22/2 103/20/2 120/85/2
f 108/35/4 102/24/4 109/87/4
f 82/27/4 101/29/4 123/89/4
f 84/31/4 100/33/4 124/91/4
f 73/24/3 99/35/3 125/86/3
f 75/29/3 98/27/3 127/88/3
f 105/33/3 97/31/3 115/90/3
f 81/24/3 96/35/3 129/86/3
f 83/29/3 95/27/3 131/88/3
f 103/33/3 94/31/3 119/90/3
f 107/35/4 93/24/4 111/87/4
f 78/27/4 92/29/4 135/89/4
f 80/31/4 91/33/4 136/91/4
f 77/24/3 90/35/3 137/86/3
f 79/29/3 89/27/3 139/88/3
f 104/33/3 88/31/3 117/90/3
f 106/35/4 87/24/4 113/87/4
f 74/27/4 86/29/4 143/89/4
f 76/31/4 85/33/4 144/91/4
f 94/98/1 84/92/1 132/94/1
f 101/114/2 83/95/2 122/97/2
f 95/98/1 82/92/1 130/94/1
f 102/92/2 81/98/2 121/93/2
f 88/115/1 80/99/1 140/101/1
f 92/105/2 79/102/2 134/104/2
f 89/102/1 78/105/1 138/103/1
f 93/105/2 77/102/2 133/104/2
f 97/116/1 76/106/1 128/108/1
f 86/112/2 75/109/2 142/111/2
f 98/109/1 74/112/1 126/110/1
f 87/112/2 73/109/2 141/111/2
f 120/47/8 119/46/8 124/45/8
f 131/42/8 130/39/8 122/43/8
f 129/38/8 110/37/8 121/41/8
f 118/52/6 117/58/6 136/51/6
f 139/56/6 138/55/6 134/50/6
f 137/53/6 112/60/6 133/48/6
f 116/64/6 115/70/6 144/63/6
f 127/68/6 126/67/6 142/62/6
f 141/59/6 125/65/6 113/66/6
