# Blender v2.73 (sub 0) OBJ File: 'Wall 03.blend'
# www.blender.org
o Cube
v 0.500000 -0.500000 -0.500000
v 0.500000 -0.500000 0.500000
v -0.500000 -0.500000 0.500000
v -0.500000 -0.500000 -0.500000
v 0.500000 0.250000 -0.500000
v 0.500000 0.250000 0.500000
v -0.500000 0.250000 0.500000
v -0.500000 0.250000 -0.500000
v 0.500000 -0.500000 -0.300000
v 0.500000 -0.500000 -0.100000
v 0.500000 -0.500000 0.100000
v 0.500000 -0.500000 0.300000
v -0.500000 -0.500000 0.300000
v -0.500000 -0.500000 0.100000
v -0.500000 -0.500000 -0.100000
v -0.500000 -0.500000 -0.300000
v 0.500000 0.250000 -0.300000
v 0.500000 0.250000 -0.100000
v 0.500000 0.250000 0.100000
v 0.500000 0.250000 0.300000
v -0.500000 0.250000 0.300000
v -0.500000 0.250000 0.100000
v -0.500000 0.250000 -0.100000
v -0.500000 0.250000 -0.300000
v 0.300000 -0.500000 -0.500000
v 0.100000 -0.500000 -0.500000
v -0.100000 -0.500000 -0.500000
v -0.300000 -0.500000 -0.500000
v 0.300000 -0.500000 0.500000
v 0.100000 -0.500000 0.500000
v -0.100000 -0.500000 0.500000
v -0.300000 -0.500000 0.500000
v 0.300000 0.250000 -0.500000
v 0.100000 0.250000 -0.500000
v -0.100000 0.250000 -0.500000
v -0.300000 0.250000 -0.500000
v 0.300000 0.250000 0.500000
v 0.100000 0.250000 0.500000
v -0.100000 0.250000 0.500000
v -0.300000 0.250000 0.500000
v 0.300000 -0.500000 -0.300000
v 0.100000 -0.500000 -0.300000
v -0.100000 -0.500000 -0.300000
v -0.300000 -0.500000 -0.300000
v 0.300000 -0.500000 -0.100000
v 0.100000 -0.500000 -0.100000
v -0.100000 -0.500000 -0.100000
v -0.300000 -0.500000 -0.100000
v 0.300000 -0.500000 0.100000
v 0.100000 -0.500000 0.100000
v -0.100000 -0.500000 0.100000
v -0.300000 -0.500000 0.100000
v 0.300000 -0.500000 0.300000
v 0.100000 -0.500000 0.300000
v -0.100000 -0.500000 0.300000
v -0.300000 -0.500000 0.300000
v 0.300000 0.250000 -0.300000
v 0.100000 0.250000 -0.300000
v -0.100000 0.250000 -0.300000
v -0.300000 0.250000 -0.300000
v 0.300000 0.250000 -0.100000
v 0.100000 0.250000 -0.100000
v -0.100000 0.250000 -0.100000
v -0.300000 0.250000 -0.100000
v 0.300000 0.250000 0.100000
v 0.100000 0.250000 0.100000
v -0.100000 0.250000 0.100000
v -0.300000 0.250000 0.100000
v 0.300000 0.250000 0.300000
v 0.100000 0.250000 0.300000
v -0.100000 0.250000 0.300000
v -0.300000 0.250000 0.300000
v 0.300000 0.250000 0.500000
v 0.300000 0.250000 0.300000
v 0.100000 0.250000 0.500000
v 0.100000 0.250000 0.300000
v -0.100000 0.250000 0.500000
v -0.100000 0.250000 0.300000
v -0.300000 0.250000 0.500000
v -0.300000 0.250000 0.300000
v 0.300000 0.250000 -0.100000
v 0.300000 0.250000 0.100000
v 0.100000 0.250000 -0.100000
v 0.100000 0.250000 0.100000
v -0.100000 0.250000 -0.100000
v -0.100000 0.250000 0.100000
v -0.300000 0.250000 -0.100000
v -0.300000 0.250000 0.100000
v 0.300000 0.250000 -0.500000
v 0.300000 0.250000 -0.300000
v 0.100000 0.250000 -0.500000
v 0.100000 0.250000 -0.300000
v -0.100000 0.250000 -0.500000
v -0.100000 0.250000 -0.300000
v -0.300000 0.250000 -0.500000
v -0.300000 0.250000 -0.300000
v -0.500000 0.250000 0.300000
v 0.500000 0.250000 0.300000
v -0.500000 0.250000 0.100000
v 0.500000 0.250000 0.100000
v -0.500000 0.250000 -0.100000
v 0.500000 0.250000 -0.100000
v -0.500000 0.250000 -0.300000
v 0.500000 0.250000 -0.300000
v -0.500000 0.250000 0.500000
v 0.500000 0.250000 0.500000
v -0.500000 0.250000 -0.500000
v 0.500000 0.250000 -0.500000
v 0.500000 0.500000 -0.300000
v 0.500000 0.500000 -0.500000
v 0.500000 0.500000 0.100000
v 0.500000 0.500000 -0.100000
v 0.500000 0.500000 0.300000
v 0.500000 0.500000 0.500000
v -0.500000 0.500000 0.300000
v -0.500000 0.500000 0.500000
v -0.500000 0.500000 0.100000
v -0.500000 0.500000 -0.100000
v -0.500000 0.500000 -0.300000
v -0.500000 0.500000 -0.500000
v 0.300000 0.500000 -0.500000
v -0.100000 0.500000 -0.500000
v 0.100000 0.500000 -0.500000
v -0.300000 0.500000 -0.500000
v 0.300000 0.500000 0.500000
v -0.100000 0.500000 0.500000
v 0.100000 0.500000 0.500000
v -0.300000 0.500000 0.500000
v 0.300000 0.500000 -0.300000
v -0.100000 0.500000 -0.300000
v 0.100000 0.500000 -0.300000
v -0.300000 0.500000 -0.300000
v 0.300000 0.500000 -0.100000
v -0.100000 0.500000 -0.100000
v 0.100000 0.500000 -0.100000
v -0.300000 0.500000 -0.100000
v 0.300000 0.500000 0.100000
v -0.100000 0.500000 0.100000
v 0.100000 0.500000 0.100000
v -0.300000 0.500000 0.100000
v 0.300000 0.500000 0.300000
v -0.100000 0.500000 0.300000
v 0.100000 0.500000 0.300000
v -0.300000 0.500000 0.300000
vn 1.000000 -0.000000 0.000000
vn -1.000000 -0.000000 -0.000000
vn -0.000000 -0.000000 1.000000
vn 0.000000 0.000000 -1.000000
vn 0.000000 -1.000000 0.000000
vn 0.000000 1.000000 0.000000
s off
f 1//1 5//1 17//1
f 18//1 10//1 9//1
f 18//1 19//1 11//1
f 20//1 12//1 11//1
f 6//1 2//1 12//1
f 21//2 13//2 3//2
f 22//2 14//2 13//2
f 23//2 15//2 14//2
f 24//2 16//2 15//2
f 8//2 4//2 16//2
f 37//3 29//3 2//3
f 38//3 30//3 29//3
f 39//3 31//3 30//3
f 40//3 32//3 31//3
f 7//3 3//3 32//3
f 25//4 33//4 5//4
f 26//4 34//4 33//4
f 27//4 35//4 34//4
f 28//4 36//4 35//4
f 4//4 8//4 36//4
f 1//5 9//5 41//5
f 42//5 26//5 25//5
f 42//5 43//5 27//5
f 44//5 28//5 27//5
f 16//5 4//5 28//5
f 45//5 41//5 9//5
f 46//5 42//5 41//5
f 47//5 43//5 42//5
f 47//5 48//5 44//5
f 48//5 15//5 16//5
f 49//5 45//5 10//5
f 50//5 46//5 45//5
f 51//5 47//5 46//5
f 52//5 48//5 47//5
f 14//5 15//5 48//5
f 53//5 49//5 11//5
f 54//5 50//5 49//5
f 55//5 51//5 50//5
f 56//5 52//5 51//5
f 13//5 14//5 52//5
f 29//5 53//5 12//5
f 30//5 54//5 53//5
f 31//5 55//5 54//5
f 31//5 32//5 56//5
f 3//5 13//5 56//5
f 59//6 35//6 36//6
f 57//6 33//6 34//6
f 23//6 64//6 60//6
f 63//6 59//6 60//6
f 62//6 58//6 59//6
f 61//6 57//6 58//6
f 18//6 17//6 57//6
f 68//6 67//6 63//6
f 65//6 61//6 62//6
f 21//6 72//6 68//6
f 72//6 71//6 67//6
f 71//6 70//6 66//6
f 69//6 65//6 66//6
f 20//6 19//6 65//6
f 39//6 71//6 72//6
f 37//6 69//6 70//6
f 69//3 37//3 73//3
f 38//3 70//3 76//3
f 71//3 39//3 77//3
f 40//3 72//3 80//3
f 61//3 65//3 82//3
f 66//3 62//3 83//3
f 63//3 67//3 86//3
f 68//3 64//3 87//3
f 33//3 57//3 90//3
f 58//3 34//3 91//3
f 35//3 59//3 94//3
f 60//3 36//3 95//3
f 72//3 21//3 97//3
f 70//3 71//3 78//3
f 20//3 69//3 74//3
f 22//3 68//3 88//3
f 67//3 66//3 84//3
f 65//3 19//3 100//3
f 64//3 23//3 101//3
f 62//3 63//3 85//3
f 18//3 61//3 81//3
f 24//3 60//3 96//3
f 59//3 58//3 92//3
f 57//3 17//3 104//3
f 7//3 40//3 79//3
f 39//3 38//3 75//3
f 37//3 6//3 106//3
f 36//3 8//3 107//3
f 34//3 35//3 93//3
f 5//3 33//3 89//3
f 8//3 24//3 103//3
f 23//3 22//3 99//3
f 21//3 7//3 105//3
f 6//3 20//3 98//3
f 19//3 18//3 102//3
f 17//3 5//3 108//3
f 108//1 110//1 109//1
f 102//1 112//1 111//1
f 98//1 113//1 114//1
f 105//2 116//2 115//2
f 99//2 117//2 118//2
f 103//2 119//2 120//2
f 89//4 121//4 110//4
f 93//4 122//4 123//4
f 107//4 120//4 124//4
f 106//3 114//3 125//3
f 75//3 127//3 126//3
f 79//3 128//3 116//3
f 104//3 109//3 129//3
f 92//3 131//3 130//3
f 96//3 132//3 119//3
f 81//4 133//4 112//4
f 85//4 134//4 135//4
f 101//4 118//4 136//4
f 100//3 111//3 137//3
f 84//3 139//3 138//3
f 88//3 140//3 117//3
f 74//4 141//4 113//4
f 78//4 142//4 143//4
f 97//4 115//4 144//4
f 95//1 124//1 132//1
f 94//2 130//2 122//2
f 91//1 123//1 131//1
f 90//2 129//2 121//2
f 87//1 136//1 140//1
f 86//2 138//2 134//2
f 83//1 135//1 139//1
f 82//2 137//2 133//2
f 80//1 144//1 128//1
f 77//2 126//2 142//2
f 76//1 143//1 127//1
f 73//2 125//2 141//2
f 119//6 132//6 124//6
f 131//6 123//6 122//6
f 109//6 110//6 121//6
f 117//6 140//6 136//6
f 139//6 135//6 134//6
f 111//6 112//6 133//6
f 116//6 128//6 144//6
f 127//6 143//6 142//6
f 125//6 114//6 113//6
f 9//1 1//1 17//1
f 17//1 18//1 9//1
f 10//1 18//1 11//1
f 19//1 20//1 11//1
f 20//1 6//1 12//1
f 7//2 21//2 3//2
f 21//2 22//2 13//2
f 22//2 23//2 14//2
f 23//2 24//2 15//2
f 24//2 8//2 16//2
f 6//3 37//3 2//3
f 37//3 38//3 29//3
f 38//3 39//3 30//3
f 39//3 40//3 31//3
f 40//3 7//3 32//3
f 1//4 25//4 5//4
f 25//4 26//4 33//4
f 26//4 27//4 34//4
f 27//4 28//4 35//4
f 28//4 4//4 36//4
f 25//5 1//5 41//5
f 41//5 42//5 25//5
f 26//5 42//5 27//5
f 43//5 44//5 27//5
f 44//5 16//5 28//5
f 10//5 45//5 9//5
f 45//5 46//5 41//5
f 46//5 47//5 42//5
f 43//5 47//5 44//5
f 44//5 48//5 16//5
f 11//5 49//5 10//5
f 49//5 50//5 45//5
f 50//5 51//5 46//5
f 51//5 52//5 47//5
f 52//5 14//5 48//5
f 12//5 53//5 11//5
f 53//5 54//5 49//5
f 54//5 55//5 50//5
f 55//5 56//5 51//5
f 56//5 13//5 52//5
f 2//5 29//5 12//5
f 29//5 30//5 53//5
f 30//5 31//5 54//5
f 55//5 31//5 56//5
f 32//5 3//5 56//5
f 60//6 59//6 36//6
f 58//6 57//6 34//6
f 24//6 23//6 60//6
f 64//6 63//6 60//6
f 63//6 62//6 59//6
f 62//6 61//6 58//6
f 61//6 18//6 57//6
f 64//6 68//6 63//6
f 66//6 65//6 62//6
f 22//6 21//6 68//6
f 68//6 72//6 67//6
f 67//6 71//6 66//6
f 70//6 69//6 66//6
f 69//6 20//6 65//6
f 40//6 39//6 72//6
f 38//6 37//6 70//6
f 74//3 69//3 73//3
f 75//3 38//3 76//3
f 78//3 71//3 77//3
f 79//3 40//3 80//3
f 81//3 61//3 82//3
f 84//3 66//3 83//3
f 85//3 63//3 86//3
f 88//3 68//3 87//3
f 89//3 33//3 90//3
f 92//3 58//3 91//3
f 93//3 35//3 94//3
f 96//3 60//3 95//3
f 80//3 72//3 97//3
f 76//3 70//3 78//3
f 98//3 20//3 74//3
f 99//3 22//3 88//3
f 86//3 67//3 84//3
f 82//3 65//3 100//3
f 87//3 64//3 101//3
f 83//3 62//3 85//3
f 102//3 18//3 81//3
f 103//3 24//3 96//3
f 94//3 59//3 92//3
f 90//3 57//3 104//3
f 105//3 7//3 79//3
f 77//3 39//3 75//3
f 73//3 37//3 106//3
f 95//3 36//3 107//3
f 91//3 34//3 93//3
f 108//3 5//3 89//3
f 107//3 8//3 103//3
f 101//3 23//3 99//3
f 97//3 21//3 105//3
f 106//3 6//3 98//3
f 100//3 19//3 102//3
f 104//3 17//3 108//3
f 104//1 108//1 109//1
f 100//1 102//1 111//1
f 106//1 98//1 114//1
f 97//2 105//2 115//2
f 101//2 99//2 118//2
f 107//2 103//2 120//2
f 108//4 89//4 110//4
f 91//4 93//4 123//4
f 95//4 107//4 124//4
f 73//3 106//3 125//3
f 77//3 75//3 126//3
f 105//3 79//3 116//3
f 90//3 104//3 129//3
f 94//3 92//3 130//3
f 103//3 96//3 119//3
f 102//4 81//4 112//4
f 83//4 85//4 135//4
f 87//4 101//4 136//4
f 82//3 100//3 137//3
f 86//3 84//3 138//3
f 99//3 88//3 117//3
f 98//4 74//4 113//4
f 76//4 78//4 143//4
f 80//4 97//4 144//4
f 96//1 95//1 132//1
f 93//2 94//2 122//2
f 92//1 91//1 131//1
f 89//2 90//2 121//2
f 88//1 87//1 140//1
f 85//2 86//2 134//2
f 84//1 83//1 139//1
f 81//2 82//2 133//2
f 79//1 80//1 128//1
f 78//2 77//2 142//2
f 75//1 76//1 127//1
f 74//2 73//2 141//2
f 120//6 119//6 124//6
f 130//6 131//6 122//6
f 129//6 109//6 121//6
f 118//6 117//6 136//6
f 138//6 139//6 134//6
f 137//6 111//6 133//6
f 115//6 116//6 144//6
f 126//6 127//6 142//6
f 141//6 125//6 113//6
