# Blender v2.68 (sub 0) OBJ File: 'Skybox.blend'
# www.blender.org
o Cube_Cube.001
v -50.000000 0.000000 50.000000
v -50.000000 0.000000 -50.000000
v 50.000000 0.000000 -50.000000
v 50.000000 0.000000 50.000000
v -50.000000 100.000000 50.000000
v -50.000000 100.000000 -50.000000
v 50.000000 100.000000 -50.000000
v 50.000000 100.000000 50.000000
vt 0.665801 0.333274
vt 0.997371 0.333274
vt 0.665801 0.664845
vt 0.665801 0.996415
vt 0.334230 0.664845
vt 0.002660 0.664845
vt 0.334230 0.333274
vt 0.334230 0.001703
vt 0.997371 0.664845
vt 0.334230 0.996415
vt 0.002659 0.333275
vt 0.665801 0.001703
vn 1.000000 0.000000 -0.000000
vn 0.000000 -0.000000 1.000000
vn -1.000000 0.000000 -0.000000
vn 0.000000 0.000000 -1.000000
vn 0.000000 -1.000000 0.000000
s off
f 5/1/1 1/2/1 6/3/1
f 6/3/2 2/4/2 7/5/2
f 7/5/3 3/6/3 8/7/3
f 8/7/4 4/8/4 5/1/4
f 8/7/5 5/1/5 7/5/5
f 1/2/1 2/9/1 6/3/1
f 2/4/2 3/10/2 7/5/2
f 3/6/3 4/11/3 8/7/3
f 4/8/4 1/12/4 5/1/4
f 5/1/5 6/3/5 7/5/5
