# Blender v2.68 (sub 0) OBJ File: 'Tank.blend'
# www.blender.org
o Tank_Cube.001
v 0.504144 -0.002933 0.338365
v 0.504144 0.264425 0.338365
v 0.169946 0.264425 0.338365
v -0.164252 0.264425 0.338365
v -0.498450 0.264425 0.338364
v -0.498449 -0.002933 0.338365
v -0.164252 -0.002933 0.338365
v 0.169946 -0.002933 0.338365
v 0.169946 0.328084 -0.027019
v 0.203366 0.377583 -0.027019
v 0.604403 0.377583 -0.027019
v 0.604403 0.328084 -0.027019
v 0.504144 0.264425 -0.107232
v 0.504144 0.264425 -0.330031
v 0.169946 0.264425 -0.330031
v -0.164252 0.264425 -0.330031
v -0.498450 0.264425 -0.330031
v -0.498450 0.264425 -0.107233
v -0.164252 0.264425 -0.107233
v 0.169946 0.264425 -0.107232
v -0.498449 0.264425 0.115566
v -0.498449 -0.002933 -0.330031
v -0.498449 -0.002933 -0.107232
v -0.498449 -0.002933 0.115566
v 0.504144 -0.002933 0.115566
v 0.504144 -0.002933 -0.107232
v 0.504144 -0.002933 -0.330031
v 0.504144 0.264425 0.115566
v 0.169946 -0.002933 -0.330031
v -0.164252 -0.002933 -0.330031
v 0.169946 0.264425 0.115566
v -0.164252 0.264425 0.115566
v 0.169946 0.328084 0.035353
v 0.604403 0.328084 0.035353
v 0.203366 0.377583 0.035353
v 0.604403 0.377583 0.035353
v 0.169946 0.441242 0.115566
v 0.169946 0.441242 -0.107232
v -0.164252 0.441242 -0.107233
v -0.164252 0.441242 0.115566
v -0.164252 0.314555 0.115566
v -0.164252 0.314555 -0.107233
v -0.498450 0.314555 -0.107233
v -0.498449 0.314555 0.115566
v 0.504144 0.314555 -0.107232
v 0.504144 0.314555 0.115566
v 0.169946 0.314555 -0.107232
v 0.169946 0.314555 0.115566
vt 0.995964 0.838507
vt 0.967159 0.818930
vt 0.967876 0.585064
vt 0.892920 0.585175
vt 0.929292 0.585064
vt 0.930069 0.838418
vt 1.000000 0.233866
vt 0.971194 0.253443
vt 0.999282 0.000000
vt 0.131121 0.585861
vt 0.261047 0.586259
vt 0.130524 0.780749
vt 0.000598 0.585861
vt 0.130524 0.586260
vt 0.000000 0.780749
vt 0.287506 0.781148
vt 0.288104 0.976036
vt 0.258273 0.781238
vt 0.494682 0.585143
vt 0.495279 0.780032
vt 0.391570 0.585460
vt 0.966442 0.819041
vt 0.930069 0.818929
vt 0.967159 0.585175
vt 0.391570 0.781458
vt 0.391180 0.911383
vt 0.354320 0.828123
vt 0.288104 0.911073
vt 0.325865 0.864410
vt 0.288495 0.781148
vt 0.325974 0.828038
vt 0.736212 0.715467
vt 0.736611 0.845393
vt 0.706979 0.715557
vt 0.000000 0.976036
vt 0.000598 0.781148
vt 0.029233 0.976126
vt 0.550732 0.715069
vt 0.550341 0.844994
vt 0.521508 0.714981
vt 0.059064 0.781148
vt 0.059662 0.976036
vt 0.029831 0.781238
vt 0.392168 0.975552
vt 0.391570 0.780664
vt 0.495279 0.975236
vt 0.100692 0.976036
vt 0.101290 0.781148
vt 0.129926 0.976126
vt 0.261645 0.585861
vt 0.391570 0.586260
vt 0.261047 0.780750
vt 0.548677 0.389777
vt 0.549275 0.584665
vt 0.393364 0.585143
vt 0.000000 0.000000
vt 0.130922 0.911390
vt 0.130524 0.781464
vt 0.233635 0.781148
vt 0.000598 0.196084
vt 0.000000 0.001196
vt 0.129926 0.000797
vt 0.708773 0.000000
vt 0.838698 0.000399
vt 0.838100 0.195287
vt 0.968624 0.585063
vt 0.838698 0.584665
vt 0.839296 0.389777
vt 0.549951 0.974920
vt 0.705808 0.975388
vt 0.892920 0.974840
vt 0.737010 0.975318
vt 0.892522 0.844915
vt 0.550471 0.390255
vt 0.706979 0.584665
vt 0.551068 0.585143
vt 0.100692 0.781235
vt 0.100583 0.817607
vt 0.071837 0.781148
vt 0.996742 0.585152
vt 0.893697 0.838530
vt 0.970417 0.000089
vt 0.260449 0.781148
vt 0.129926 0.781148
vt 0.258871 0.976126
vt 0.392168 0.780348
vt 0.930787 0.585064
vt 0.354210 0.864495
vt 0.707378 0.845483
vt 0.521118 0.844907
vt 0.030429 0.976126
vt 0.494682 0.780348
vt 0.130524 0.781238
vt 0.390972 0.781148
vt 0.392766 0.390255
vt 0.547481 0.000000
vt 0.392168 0.195367
vt 0.391570 0.000478
vt 0.548079 0.194888
vt 0.234033 0.911073
vt 0.204800 0.911163
vt 0.204401 0.781237
vt 0.390375 0.194888
vt 0.259851 0.000399
vt 0.389777 0.000000
vt 0.001794 0.585861
vt 0.001196 0.390973
vt 0.391570 0.584665
vt 0.390972 0.389777
vt 0.708175 0.194888
vt 0.707577 0.389777
vt 0.836905 0.585064
vt 0.837502 0.390175
vt 0.969222 0.390175
vt 0.839894 0.194888
vt 0.969819 0.195287
vt 0.970417 0.000398
vt 0.840492 0.000000
vt 0.551122 0.585143
vt 0.706979 0.585612
vt 0.892123 0.714989
vt 0.735814 0.585542
vt 0.891724 0.585064
vt 0.706381 0.389777
vt 0.705185 0.000000
vt 0.549873 0.195367
vt 0.549275 0.000478
vt 0.705783 0.194888
vt 0.071728 0.817520
vn -0.000000 0.000000 -1.000000
vn 0.000000 -1.000000 0.000000
vn -0.000000 -0.000000 1.000000
vn -0.000000 1.000000 0.000000
vn 0.000000 -0.000001 -1.000000
vn 0.000001 0.000000 -1.000000
vn 1.000000 -0.000003 0.000002
vn 0.923087 0.000000 -0.384591
vn 0.923086 0.000000 0.384595
vn -1.000000 -0.000000 0.000001
vn 1.000000 0.000000 0.000000
vn 0.885404 0.464823 0.000001
vn -0.000001 0.000000 1.000000
vn -0.000001 0.000001 1.000000
vn -1.000000 0.000000 0.000000
vn -1.000000 -0.000002 0.000000
vn 1.000000 -0.000000 0.000004
vn 1.000000 -0.000001 0.000000
vn 0.757455 -0.511407 0.405862
vn 0.757456 -0.511408 -0.405860
vn 0.885403 0.464825 -0.000000
vn -0.687928 -0.000000 0.725779
vn 1.000000 0.000002 0.000002
vn -1.000000 0.000000 -0.000002
s off
f 9/1/1 10/2/1 11/3/1
f 33/4/2 9/5/2 12/6/2
f 35/7/3 33/8/3 36/9/3
f 37/10/4 38/11/4 40/12/4
f 41/13/4 42/14/4 44/15/4
f 19/16/5 18/17/5 42/18/5
f 20/19/6 19/20/6 38/21/6
f 10/22/4 35/23/4 11/24/4
f 31/25/7 20/26/7 33/27/7
f 20/26/8 38/28/8 10/29/8
f 37/30/9 31/25/9 35/31/9
f 18/32/10 21/33/10 43/34/10
f 21/35/3 32/36/3 44/37/3
f 28/38/11 13/39/11 46/40/11
f 13/41/1 20/42/1 45/43/1
f 32/44/3 31/45/3 40/46/3
f 38/28/12 37/30/12 10/29/12
f 31/47/13 28/48/13 48/49/13
f 46/50/4 45/51/4 48/52/4
f 4/53/14 5/54/14 6/55/14
f 26/56/11 25/56/11 1/56/11
f 40/57/15 39/58/15 19/59/15
f 7/60/2 6/61/2 24/62/2
f 25/56/15 26/56/15 1/56/15
f 13/63/4 14/64/4 15/65/4
f 21/66/4 5/67/4 4/68/4
f 14/69/11 13/39/11 27/70/11
f 6/71/16 5/72/16 24/73/16
f 16/74/1 22/75/1 17/76/1
f 34/77/17 12/78/17 36/79/17
f 12/80/1 9/1/1 11/3/1
f 34/81/2 33/4/2 12/6/2
f 33/8/3 34/82/3 36/9/3
f 38/11/4 39/83/4 40/12/4
f 42/14/4 43/84/4 44/15/4
f 18/17/1 43/85/1 42/18/1
f 19/20/6 39/86/6 38/21/6
f 35/23/4 36/87/4 11/24/4
f 20/26/18 9/88/18 33/27/18
f 9/88/19 20/26/19 10/29/19
f 31/25/20 33/27/20 35/31/20
f 21/33/10 44/89/10 43/34/10
f 32/36/3 41/43/3 44/37/3
f 13/39/11 45/90/11 46/40/11
f 20/42/1 47/91/1 45/43/1
f 31/45/3 37/92/3 40/46/3
f 37/30/21 35/31/21 10/29/21
f 28/48/13 46/93/13 48/49/13
f 45/51/4 47/94/4 48/52/4
f 4/53/3 6/55/3 7/95/3
f 2/96/3 8/97/3 1/98/3
f 3/99/3 4/53/3 7/95/3
f 2/96/3 3/99/3 7/95/3
f 8/97/3 2/96/3 7/95/3
f 27/56/15 26/56/15 1/56/15
f 32/100/22 40/57/22 41/101/22
f 40/57/15 19/59/15 41/101/15
f 19/59/11 42/102/11 41/101/11
f 30/103/2 23/104/2 22/105/2
f 1/106/2 8/107/2 27/108/2
f 27/108/2 8/107/2 29/109/2
f 29/109/2 8/107/2 30/103/2
f 30/103/2 8/107/2 23/104/2
f 8/107/2 7/60/2 24/62/2
f 23/104/2 8/107/2 24/62/2
f 26/56/11 27/56/11 1/56/11
f 20/110/4 13/63/4 15/65/4
f 19/111/4 20/110/4 15/65/4
f 17/112/4 18/75/4 16/113/4
f 18/75/4 19/111/4 15/65/4
f 16/113/4 18/75/4 15/65/4
f 32/114/4 21/66/4 4/68/4
f 32/114/4 4/68/4 3/115/4
f 31/116/4 32/114/4 3/115/4
f 28/117/4 31/116/4 2/118/4
f 31/116/4 3/115/4 2/118/4
f 28/38/23 2/119/23 1/120/23
f 13/39/11 28/38/11 27/70/11
f 28/38/11 1/120/11 27/70/11
f 23/121/15 17/122/15 22/123/15
f 5/72/24 21/33/24 24/73/24
f 21/33/10 18/32/10 24/73/10
f 18/32/15 17/122/15 24/73/15
f 17/122/15 23/121/15 24/73/15
f 30/124/1 22/75/1 16/74/1
f 27/125/1 15/126/1 14/127/1
f 27/125/1 29/128/1 15/126/1
f 29/128/1 30/124/1 15/126/1
f 30/124/1 16/74/1 15/126/1
f 12/78/17 11/129/17 36/79/17
