# Blender v2.73 (sub 0) OBJ File: 'Tank.blend'
# www.blender.org
o Tank_Cube.001
v 0.400000 -0.200000 -0.600000
v 0.400000 0.120000 -0.600000
v 0.400000 0.120000 -0.200000
v 0.400000 0.120000 0.200000
v 0.400000 0.120000 0.600000
v 0.400000 -0.200000 0.600000
v 0.400000 -0.200000 0.200000
v 0.400000 -0.200000 -0.200000
v -0.037326 0.196193 -0.200000
v -0.037326 0.255438 -0.240000
v -0.037326 0.255438 -0.720000
v -0.037326 0.196193 -0.720000
v -0.133333 0.120000 -0.600000
v -0.400000 0.120000 -0.600000
v -0.400000 0.120000 -0.200000
v -0.400000 0.120000 0.200000
v -0.400000 0.120000 0.600000
v -0.133334 0.120000 0.600000
v -0.133334 0.120000 0.200000
v -0.133333 0.120000 -0.200000
v 0.133333 0.120000 0.600000
v -0.400000 -0.200000 0.600000
v -0.133333 -0.200000 0.600000
v 0.133333 -0.200000 0.600000
v 0.133333 -0.200000 -0.600000
v -0.133333 -0.200000 -0.600000
v -0.400000 -0.200000 -0.600000
v 0.133334 0.120000 -0.600000
v -0.400000 -0.200000 -0.200000
v -0.400000 -0.200000 0.200000
v 0.133333 0.120000 -0.200000
v 0.133333 0.120000 0.200000
v 0.037326 0.196193 -0.200000
v 0.037326 0.196193 -0.719999
v 0.037326 0.255438 -0.240000
v 0.037326 0.255438 -0.719999
v 0.133333 0.331631 -0.200000
v -0.133333 0.331631 -0.200000
v -0.133334 0.331631 0.200000
v 0.133333 0.331631 0.200000
v 0.133333 0.180000 0.200000
v -0.133334 0.180000 0.200000
v -0.133334 0.180000 0.600000
v 0.133333 0.180000 0.600000
v -0.133333 0.180000 -0.600000
v 0.133334 0.180000 -0.600000
v -0.133333 0.180000 -0.200000
v 0.133333 0.180000 -0.200000
vn -1.000000 0.000000 0.000000
vn 0.000000 -1.000000 -0.000000
vn 1.000000 0.000000 0.000000
vn 0.000000 1.000000 0.000000
vn 0.000000 -0.000000 -1.000000
vn -0.619600 -0.439200 -0.650500
vn 0.000000 0.000000 1.000000
vn 0.000000 0.464800 -0.885400
vn 0.619600 -0.439200 -0.650500
s off
f 10//1 11//1 12//1
f 9//2 12//2 34//2
f 35//3 33//3 34//3
f 38//4 39//4 40//4
f 42//4 43//4 44//4
f 19//1 18//1 43//1
f 19//1 39//1 38//1
f 10//4 35//4 36//4
f 31//5 20//5 9//5
f 38//6 10//6 9//6
f 37//5 31//5 33//5
f 21//7 44//7 43//7
f 32//3 41//3 44//3
f 13//5 45//5 46//5
f 20//1 47//1 45//1
f 32//3 31//3 37//3
f 37//8 35//8 10//8
f 28//3 46//3 48//3
f 46//4 45//4 47//4
f 3//3 7//3 8//3
f 26//5 25//5 1//5
f 40//7 39//7 42//7
f 8//2 7//2 30//2
f 25//7 26//7 27//7
f 19//4 15//4 16//4
f 32//4 21//4 4//4
f 13//5 28//5 1//5
f 23//7 18//7 22//7
f 30//1 17//1 16//1
f 12//5 11//5 36//5
f 9//1 10//1 12//1
f 33//2 9//2 34//2
f 36//3 35//3 34//3
f 37//4 38//4 40//4
f 41//4 42//4 44//4
f 42//1 19//1 43//1
f 20//1 19//1 38//1
f 11//4 10//4 36//4
f 33//5 31//5 9//5
f 20//5 38//5 9//5
f 35//9 37//9 33//9
f 18//7 21//7 43//7
f 21//3 32//3 44//3
f 28//5 13//5 46//5
f 13//1 20//1 45//1
f 40//3 32//3 37//3
f 38//8 37//8 10//8
f 31//3 28//3 48//3
f 48//4 46//4 47//4
f 7//3 3//3 4//3
f 8//3 1//3 2//3
f 4//3 6//3 7//3
f 3//3 8//3 2//3
f 6//3 4//3 5//3
f 27//7 26//7 1//7
f 41//3 32//3 40//3
f 39//1 19//1 42//1
f 42//7 41//7 40//7
f 27//2 1//2 8//2
f 8//2 29//2 27//2
f 23//2 22//2 30//2
f 7//2 24//2 23//2
f 24//2 7//2 6//2
f 30//2 29//2 8//2
f 7//2 23//2 30//2
f 1//5 25//5 27//5
f 17//4 18//4 19//4
f 15//4 20//4 13//4
f 13//4 14//4 15//4
f 19//4 16//4 17//4
f 15//4 19//4 20//4
f 3//4 31//4 32//4
f 3//4 2//4 28//4
f 32//4 4//4 3//4
f 4//4 21//4 5//4
f 3//4 28//4 31//4
f 27//5 14//5 13//5
f 13//5 1//5 27//5
f 1//5 28//5 2//5
f 24//7 6//7 5//7
f 21//7 23//7 24//7
f 18//7 17//7 22//7
f 23//7 21//7 18//7
f 21//7 24//7 5//7
f 14//1 27//1 29//1
f 30//1 16//1 15//1
f 15//1 14//1 29//1
f 30//1 22//1 17//1
f 15//1 29//1 30//1
f 34//5 12//5 36//5
